<?xml version="1.0" encoding="UTF-8" standalone="no"?>
<!DOCTYPE svg PUBLIC "-//W3C//DTD SVG 1.1//EN" "http://www.w3.org/Graphics/SVG/1.1/DTD/svg11.dtd">
<svg version="1.1" xmlns="http://www.w3.org/2000/svg" xmlns:xlink="http://www.w3.org/1999/xlink" preserveAspectRatio="xMidYMid meet" viewBox="0 0 341 346" width="341" height="346"><defs><path d="M340.14 175.44C340.14 269.58 263.71 346 169.58 346C75.45 346 -0.98 269.58 -0.98 175.44C-0.98 81.31 75.45 4.89 169.58 4.89C263.71 4.89 340.14 81.31 340.14 175.44Z" id="a3c4Fg3vpc"></path><path d="M177.82 196.56L181.87 197.01L185.87 197.64L189.82 198.44L193.72 199.42L197.56 200.55L201.33 201.85L205.04 203.31L208.68 204.92L212.25 206.68L215.75 208.58L219.17 210.64L222.5 212.83L225.75 215.15L228.92 217.62L231.99 220.21L234.97 222.92L237.85 225.76L240.63 228.71L243.31 231.78L245.88 234.97L248.33 238.26L250.68 241.65L252.91 245.14L255.01 248.74L257 252.42L258.86 256.19L260.58 260.05L262.18 264L263.64 268.02L264.95 272.12L266.13 276.29L267.16 280.53L268.04 284.83L268.76 289.19L269.34 293.61L269.75 298.09L270 302.61L270.08 307.19L270 311.76L269.91 313.34L264.91 316.86L259.39 320.43L253.73 323.8L247.93 326.95L242 329.88L235.94 332.59L229.76 335.06L223.47 337.3L217.06 339.29L210.55 341.04L203.94 342.53L197.23 343.77L190.44 344.74L183.56 345.43L176.61 345.86L169.58 346L162.55 345.86L155.6 345.43L148.72 344.74L141.93 343.77L135.23 342.53L128.61 341.04L122.1 339.29L115.7 337.3L109.4 335.06L103.22 332.59L97.16 329.88L91.23 326.95L85.43 323.8L79.77 320.43L74.25 316.86L69.25 313.34L69.16 311.76L69.08 307.19L69.16 302.61L69.41 298.09L69.83 293.61L70.4 289.19L71.12 284.83L72 280.53L73.03 276.29L74.21 272.12L75.53 268.02L76.98 264L78.58 260.05L80.31 256.19L82.16 252.42L84.15 248.74L86.25 245.14L88.48 241.65L90.83 238.26L93.29 234.97L95.85 231.78L98.53 228.71L101.31 225.76L104.19 222.92L107.17 220.21L110.24 217.62L113.41 215.15L116.66 212.83L119.99 210.64L123.41 208.58L126.91 206.68L130.48 204.92L134.12 203.31L137.83 201.85L141.6 200.55L145.44 199.42L149.34 198.44L153.29 197.64L157.29 197.01L161.34 196.56L165.44 196.28L169.58 196.19L173.72 196.28L177.82 196.56Z" id="d2CKYA5VyY"></path><path d="M250.93 89.51L250.93 96.76L250.93 103.88L250.93 110.86L250.93 117.69L250.93 124.4L250.93 130.96L250.93 137.39L250.93 143.68L250.93 149.83L250.93 155.85L250.93 161.73L250.93 167.47L250.93 173.07L250.93 178.54L250.93 183.87L250.93 189.06L250.93 194.12L250.93 199.04L250.93 203.82L250.93 208.46L250.93 212.97L250.93 217.34L250.93 221.57L250.93 225.66L250.93 229.62L250.93 233.44L250.93 237.12L250.93 240.67L250.93 244.08L250.93 247.35L250.93 250.48L250.93 253.48L250.93 256.34L250.93 259.06L250.93 261.64L250.93 264.09L250.93 266.4L250.93 268.57L250.93 270.61L250.93 272.51L250.93 272.63L250.92 272.75L250.91 272.86L250.89 272.98L250.87 273.09L250.84 273.21L250.81 273.32L250.78 273.43L250.74 273.53L250.7 273.64L250.65 273.74L250.6 273.84L250.55 273.94L250.49 274.04L250.43 274.13L250.37 274.22L250.3 274.31L250.23 274.4L250.15 274.48L250.08 274.56L250 274.64L249.91 274.71L249.83 274.79L249.74 274.85L249.65 274.92L249.55 274.98L249.46 275.04L249.36 275.09L249.26 275.14L249.15 275.19L249.05 275.23L248.94 275.27L248.83 275.3L248.72 275.33L248.61 275.35L248.49 275.38L248.38 275.39L248.26 275.4L248.14 275.41L248.02 275.41L247.88 275.41L247.75 275.41L247.64 275.41L247.55 275.41L247.46 275.41L247.39 275.41L247.32 275.41L247.26 275.41L247.21 275.41L247.16 275.41L247.11 275.41L247.06 275.41L247.01 275.41L246.95 275.41L246.89 275.41L246.82 275.41L246.74 275.41L246.64 275.41L246.53 275.41L246.41 275.41L246.27 275.41L246.11 275.41L245.93 275.41L245.72 275.41L245.49 275.41L245.23 275.41L244.94 275.41L244.63 275.41L244.28 275.41L243.89 275.41L243.47 275.41L243.01 275.41L242.51 275.41L241.97 275.41L241.38 275.41L240.75 275.41L240.07 275.41L239.34 275.41L238.55 275.41L237.72 275.41L237.46 275.41L237.19 275.41L236.91 275.41L236.62 275.41L236.32 275.41L236.01 275.41L235.68 275.41L235.34 275.41L234.99 275.41L234.63 275.41L234.26 275.41L233.88 275.41L233.48 275.41L233.08 275.41L232.66 275.41L232.23 275.41L231.79 275.41L231.33 275.41L230.87 275.41L230.39 275.41L229.91 275.41L229.41 275.41L228.9 275.41L228.37 275.41L227.84 275.41L227.3 275.41L226.74 275.41L226.17 275.41L225.59 275.41L225 275.41L224.4 275.41L223.78 275.41L223.16 275.41L222.52 275.41L221.87 275.41L221.21 275.41L220.54 275.41L219.86 275.41L219.16 275.41L218.46 275.41L218.02 275.41L217.59 275.41L217.17 275.41L216.75 275.41L216.35 275.41L215.95 275.41L215.56 275.41L215.18 275.41L214.81 275.41L214.45 275.41L214.09 275.41L213.74 275.41L213.41 275.41L213.08 275.41L212.75 275.41L212.44 275.41L212.13 275.41L211.84 275.41L211.55 275.41L211.27 275.41L210.99 275.41L210.73 275.41L210.47 275.41L210.23 275.41L209.99 275.41L209.76 275.41L209.53 275.41L209.32 275.41L209.11 275.41L208.92 275.41L208.73 275.41L208.55 275.41L208.37 275.41L208.21 275.41L208.05 275.41L207.9 275.41L207.76 275.41L207.63 275.41L207.51 275.41L207.4 275.41L207.29 275.41L207.19 275.41L207.09 275.4L207 275.38L206.9 275.36L206.8 275.34L206.71 275.32L206.62 275.29L206.53 275.26L206.44 275.22L206.35 275.18L206.26 275.14L206.18 275.09L206.1 275.04L206.02 274.99L205.94 274.94L205.87 274.88L205.79 274.82L205.72 274.76L205.65 274.69L205.59 274.62L205.53 274.55L205.47 274.48L205.41 274.41L205.35 274.33L205.3 274.25L205.25 274.17L205.21 274.08L205.17 274L205.13 273.91L205.09 273.82L205.06 273.73L205.03 273.64L205 273.54L204.98 273.45L204.96 273.35L204.95 273.25L204.94 273.15L204.93 273.05L204.93 272.95L204.93 271.05L204.93 269.01L204.93 266.83L204.93 264.51L204.93 262.06L204.93 259.47L204.93 256.74L204.93 253.87L204.93 250.87L204.93 247.73L204.93 244.45L204.93 241.03L204.93 237.48L204.93 233.79L204.93 229.96L204.93 225.99L204.93 221.89L204.93 217.64L204.93 213.26L204.93 208.75L204.93 204.09L204.93 199.3L204.93 194.37L204.93 189.3L204.93 184.1L204.93 178.76L204.93 173.28L204.93 167.66L204.93 161.9L204.93 156.01L204.93 149.98L204.93 143.81L204.93 137.51L204.93 131.06L204.93 124.48L204.93 117.76L204.93 110.91L204.93 103.91L204.93 96.78L204.93 89.51L204.93 89.51L250.93 89.51Z" id="a2gDz3u8iX"></path><path d="M91.37 89.51L139.36 89.51C139.36 187.04 139.36 248 139.36 272.38C139.36 274.06 138.01 275.41 136.33 275.41C134.18 275.41 137.58 275.41 125.58 275.41C122.09 275.41 115.39 275.41 105.48 275.41C99.32 275.41 95.48 275.41 93.94 275.41C92.52 275.41 91.37 274.26 91.37 272.84C91.37 248.4 91.37 187.29 91.37 89.51Z" id="a1v6i5pfd"></path><path d="M128.52 163.14L131.52 163.14L131.52 275.41L128.52 275.41L128.52 163.14Z" id="b8DCEvMHC"></path><path d="M139.36 166.64L205.05 166.64C205.05 189.27 205.05 203.42 205.05 209.07C205.05 217.46 201.01 225.33 194.19 230.22C189.79 233.37 195.28 229.44 192.84 231.19C180.5 240.03 163.91 240.03 151.57 231.19C149.13 229.44 154.62 233.37 150.22 230.22C143.41 225.33 139.36 217.46 139.36 209.07C139.36 203.42 139.36 189.27 139.36 166.64Z" id="b1r9kt9SRW"></path><path d="M104.23 129L107.23 129L107.23 275.41L104.23 275.41L104.23 129Z" id="e1b5b0DqqE"></path><path d="M139.36 169.68L205.05 169.68L205.05 187.94C202.29 189.18 200.56 189.96 199.87 190.27C182.27 198.16 162.14 198.16 144.54 190.27C143.85 189.96 142.13 189.18 139.36 187.94L139.36 169.68Z" id="eCyIvpZGr"></path><path d="M212.7 144.79L215.7 144.79L215.7 275.41L212.7 275.41L212.7 144.79Z" id="crWirW4Td"></path><path d="M112.36 139.4L115.36 139.4L115.36 275.41L112.36 275.41L112.36 139.4Z" id="awJRIFtTz"></path><path d="M229.54 135.1L232.54 135.1L232.54 275.41L229.54 275.41L229.54 135.1Z" id="azs7o6EZZ"></path><path d="M181.55 3.59L186.58 3.96L191.35 4.47L195.87 5.12L200.15 5.9L204.2 6.82L208.02 7.87L211.62 9.05L215.01 10.35L218.18 11.78L221.16 13.32L223.94 14.98L226.53 16.76L228.94 18.64L231.17 20.63L233.24 22.73L235.14 24.92L236.89 27.22L238.49 29.61L239.95 32.1L241.27 34.67L242.46 37.33L243.53 40.08L244.48 42.91L245.33 45.81L246.07 48.79L246.72 51.85L247.27 54.97L247.46 56.2L248.07 55.85L248.78 55.57L249.59 55.37L250.51 55.25L251.53 55.22L252.57 55.25L253.53 55.37L254.42 55.57L255.24 55.85L256 56.21L256.68 56.65L257.3 57.18L257.87 57.79L258.37 58.5L258.82 59.29L259.22 60.17L259.57 61.15L259.88 62.22L260.14 63.39L260.35 64.65L260.54 66.01L260.68 67.46L260.79 69.02L260.88 70.68L260.93 72.45L260.97 74.32L260.98 76.29L260.97 78.3L260.93 80.28L260.88 82.2L260.79 84.08L260.68 85.9L260.54 87.66L260.35 89.35L260.14 90.97L259.88 92.52L259.57 93.98L259.22 95.35L258.82 96.64L258.37 97.82L257.87 98.91L257.3 99.88L256.68 100.75L256 101.49L255.24 102.11L254.42 102.6L253.53 102.96L252.57 103.18L251.53 103.25L250.51 103.18L249.59 102.96L248.78 102.6L248.32 102.29L248.25 102.63L247.87 104.28L247.44 105.93L246.96 107.6L246.44 109.27L245.87 110.95L245.27 112.63L244.63 114.31L243.95 116L243.24 117.68L242.51 119.36L241.74 121.03L240.95 122.69L240.14 124.34L239.31 125.98L238.47 127.61L237.6 129.22L236.73 130.82L235.85 132.39L234.96 133.94L234.07 135.47L233.17 136.98L232.27 138.45L231.38 139.9L230.5 141.32L229.62 142.7L228.75 144.05L227.89 145.37L227.05 146.64L226.23 147.87L225.43 149.06L224.65 150.21L223.9 151.31L223.18 152.36L222.48 153.36L221.79 154.34L221.07 155.34L220.31 156.34L219.53 157.35L218.72 158.37L217.87 159.39L217 160.41L216.09 161.43L215.15 162.45L214.19 163.47L213.19 164.48L212.16 165.48L211.1 166.48L210.01 167.46L208.89 168.43L207.73 169.39L206.55 170.33L205.34 171.25L204.09 172.15L202.82 173.02L201.51 173.88L200.17 174.7L198.8 175.5L197.4 176.27L195.97 177L194.5 177.71L193.01 178.37L191.48 179L189.92 179.59L188.34 180.14L186.72 180.65L185.06 181.11L183.38 181.52L181.67 181.88L179.92 182.2L178.14 182.46L176.33 182.66L174.49 182.81L172.62 182.9L170.71 182.93L169.03 182.91L167.36 182.83L165.72 182.69L164.09 182.51L162.49 182.29L160.91 182.01L159.35 181.69L157.81 181.34L156.3 180.94L154.81 180.5L153.34 180.03L151.9 179.52L150.48 178.98L149.09 178.41L147.72 177.81L146.38 177.18L145.07 176.53L143.79 175.85L142.53 175.15L141.3 174.44L140.11 173.7L138.94 172.95L137.8 172.19L136.69 171.41L135.61 170.63L134.57 169.83L133.56 169.03L132.58 168.23L131.63 167.42L130.72 166.61L129.84 165.8L129 165L128.19 164.2L127.41 163.4L126.68 162.62L125.98 161.84L125.32 161.08L124.7 160.33L124.11 159.59L123.56 158.88L123.01 158.13L122.39 157.3L121.71 156.38L120.98 155.39L120.2 154.33L119.37 153.19L118.5 151.98L117.59 150.71L116.65 149.37L115.68 147.98L114.68 146.52L113.66 145.02L112.63 143.46L111.57 141.86L110.51 140.21L109.44 138.51L108.37 136.78L107.3 135.02L106.23 133.22L105.18 131.39L104.14 129.53L103.11 127.65L102.1 125.75L101.12 123.83L100.17 121.89L99.26 119.95L98.37 117.99L97.53 116.03L96.74 114.07L95.99 112.1L95.3 110.14L94.66 108.18L94.08 106.24L93.57 104.3L93.52 104.12L92.93 104.72L92.22 105.21L91.41 105.57L90.49 105.78L89.47 105.86L88.43 105.78L87.47 105.57L86.58 105.21L85.76 104.72L85 104.1L84.32 103.35L83.7 102.49L83.13 101.51L82.63 100.43L82.18 99.24L81.78 97.96L81.43 96.58L81.12 95.12L80.86 93.57L80.65 91.95L80.46 90.26L80.32 88.5L80.21 86.68L80.12 84.81L80.07 82.88L80.03 80.91L80.02 78.9L80.03 76.92L80.07 75.05L80.12 73.29L80.21 71.63L80.32 70.07L80.46 68.61L80.65 67.25L80.86 65.99L81.12 64.82L81.43 63.75L81.78 62.78L82.18 61.89L82.63 61.1L83.13 60.4L83.7 59.78L84.32 59.25L85 58.81L85.76 58.45L86.58 58.17L87.47 57.97L88.43 57.86L89.47 57.82L90.49 57.86L91.41 57.97L92.22 58.17L92.93 58.45L93.55 58.81L93.59 58.84L93.68 58.16L94.15 54.97L94.71 51.85L95.35 48.79L96.09 45.81L96.94 42.91L97.89 40.08L98.96 37.33L100.15 34.67L101.48 32.1L102.93 29.61L104.53 27.22L106.28 24.92L108.18 22.73L110.25 20.63L112.48 18.64L114.89 16.76L117.48 14.98L120.26 13.32L123.24 11.78L126.41 10.35L129.8 9.05L133.4 7.87L137.22 6.82L141.27 5.9L145.55 5.12L150.07 4.47L154.84 3.96L159.87 3.59L165.16 3.37L170.71 3.29L176.26 3.37L181.55 3.59Z" id="c3v0uA79BK"></path><path d="" id="eKYXJzicE"></path><path d="M192.05 131.5C193.67 131.5 194.99 132.82 194.99 134.45C194.99 138.46 194.99 132.86 194.99 133.2C194.99 144.97 185.45 154.51 173.68 154.51C168.74 154.51 175.02 154.51 170.02 154.51C158.41 154.51 149 145.1 149 133.49C149 133.09 149 138.81 149 134.89C149 133.02 150.51 131.5 152.38 131.5C160.9 131.5 183.44 131.5 192.05 131.5Z" id="b3RXGGmmKu"></path><path d="M152.24 131.5L191.75 131.5C191.28 133.52 190.99 134.77 190.88 135.28C190.41 137.28 188.63 138.69 186.58 138.69C180.18 138.69 164.74 138.69 158.41 138.69C156.12 138.69 154.09 137.22 153.39 135.04C153.23 134.57 152.85 133.39 152.24 131.5Z" id="j3eQ1INUCa"></path><path d="M187.35 148.24C186.3 152.21 180.21 154.22 172.21 154.51C164.21 154.81 157.35 151.81 157.35 148.74C157.35 147.4 160.02 146.32 165.34 145.5C167.26 145.2 169.23 145.72 170.76 146.93C170.92 147.06 171.33 147.39 171.98 147.91C171.98 147.91 171.98 147.91 171.98 147.91C174.13 145.6 177.25 144.47 180.38 144.87C185.45 145.53 187.78 146.65 187.35 148.24Z" id="c2uQqrYh7R"></path><path d="M154.86 71.29C155.05 73.73 147.27 69.98 138.1 70.68C128.93 71.39 121.81 76.29 121.62 73.85C121.44 71.4 127.25 66.95 136.42 66.25C145.59 65.54 154.67 68.85 154.86 71.29Z" id="aAIosLPLl"></path><path d="M186.36 71.29C186.17 73.73 193.95 69.98 203.12 70.68C212.29 71.39 219.4 76.29 219.59 73.85C219.78 71.4 213.97 66.95 204.8 66.25C195.63 65.54 186.55 68.85 186.36 71.29Z" id="b2MOoiFRcj"></path><path d="M177.58 0.27L179.39 0.43L181.18 0.6L182.95 0.78L184.7 0.98L186.42 1.19L188.12 1.41L189.79 1.65L191.45 1.9L193.08 2.16L194.69 2.44L196.27 2.73L197.83 3.04L199.37 3.35L200.89 3.68L202.38 4.03L203.85 4.38L205.3 4.76L206.73 5.14L208.13 5.54L209.51 5.95L210.87 6.37L212.2 6.81L213.51 7.26L214.8 7.73L216.06 8.2L217.31 8.7L218.53 9.2L219.72 9.72L220.9 10.25L222.05 10.79L223.18 11.35L224.28 11.92L225.37 12.51L226.43 13.11L227.46 13.72L228.48 14.34L229.47 14.98L230.44 15.64L231.39 16.31L232.31 17.01L233.21 17.75L234.08 18.51L234.93 19.31L235.76 20.13L236.56 20.99L237.34 21.87L238.09 22.79L238.83 23.73L239.53 24.71L240.22 25.71L240.88 26.75L241.52 27.82L242.13 28.91L242.72 30.04L243.28 31.2L243.75 32.21L244 32.58L244.27 33.05L244.55 33.59L244.83 34.2L245.12 34.88L245.41 35.63L245.7 36.46L246 37.36L246.3 38.33L246.6 39.37L246.9 40.48L247.21 41.67L247.53 42.92L247.84 44.25L248.16 45.65L248.48 47.13L248.78 48.68L249.07 50.31L249.34 52.02L249.6 53.81L249.85 55.68L250.08 57.63L250.3 59.65L250.5 61.75L250.69 63.93L250.87 66.19L251.03 68.53L251.18 70.94L251.32 73.44L251.44 76.01L251.55 78.66L251.65 81.39L251.73 84.19L251.8 87.08L251.85 90.04L251.89 93.08L251.92 96.2L251.93 99.4L251.93 102.68L251.91 106.03L251.88 109.46L251.84 112.98L251.78 116.57L251.71 120.23L251.63 123.98L251.53 127.8L251.42 131.71L251.3 135.69L251.16 139.75L251.01 143.89L250.84 148.1L250.66 152.4L250.47 156.77L250.26 161.22L250.04 165.75L238.06 165.75L238.06 60.91L165.86 28.44L173.88 0L175.74 0.13L177.58 0.27Z" id="a64V54H5XU"></path><path d="M176.28 0.59L177.74 0.9L179.13 1.23L180.46 1.56L181.72 1.91L182.92 2.27L184.05 2.63L185.12 3.01L186.12 3.4L187.07 3.8L187.94 4.22L188.75 4.64L189.5 5.07L190.18 5.52L190.8 5.98L191.36 6.44L191.85 6.92L192.27 7.41L192.64 7.91L192.93 8.43L193.17 8.95L193.33 9.48L193.44 10.03L193.48 10.59L193.45 11.15L193.36 11.73L193.21 12.32L192.99 12.92L192.71 13.53L192.37 14.16L191.96 14.79L191.48 15.44L190.94 16.09L190.34 16.76L189.67 17.44L188.94 18.13L188.14 18.83L187.28 19.54L186.35 20.26L185.36 21L184.3 21.75L183.17 22.52L181.96 23.3L180.69 24.1L179.35 24.91L177.94 25.74L176.46 26.58L174.9 27.44L173.28 28.31L171.59 29.2L169.83 30.11L167.99 31.03L166.09 31.97L164.12 32.92L162.08 33.89L159.96 34.87L157.78 35.87L155.53 36.88L153.21 37.91L150.82 38.95L148.35 40.01L145.82 41.09L143.22 42.18L140.55 43.28L137.8 44.41L134.99 45.54L132.11 46.69L129.16 47.86L126.14 49.05L123.04 50.24L119.88 51.46L116.65 52.69L113.35 53.93L109.97 55.19L106.53 56.47L103.02 57.76L100.74 58.59L103.25 170.62L92.83 171.18L92.41 166.96L92.01 162.81L91.63 158.74L91.26 154.74L90.92 150.81L90.59 146.96L90.27 143.17L89.98 139.46L89.71 135.82L89.45 132.26L89.21 128.77L88.98 125.35L88.78 122L88.59 118.72L88.42 115.52L88.27 112.39L88.14 109.33L88.02 106.34L87.92 103.43L87.84 100.59L87.78 97.82L87.74 95.12L87.71 92.5L87.7 89.95L87.71 87.47L87.74 85.06L87.78 82.73L87.84 80.47L87.92 78.28L88.02 76.16L88.14 74.12L88.27 72.15L88.42 70.25L88.59 68.42L88.78 66.67L88.98 64.99L89.2 63.38L89.44 61.84L89.7 60.38L89.98 58.98L90.26 57.66L90.54 56.41L90.83 55.22L91.11 54.1L91.39 53.05L91.67 52.06L91.95 51.14L92.23 50.29L92.51 49.5L92.78 48.79L93.06 48.14L93.22 47.79L93.3 47.37L93.55 46.05L93.83 44.75L94.13 43.46L94.46 42.2L94.81 40.96L95.18 39.73L95.58 38.53L96 37.35L96.44 36.18L96.91 35.04L97.4 33.92L97.92 32.82L98.46 31.74L99.03 30.68L99.61 29.63L100.23 28.61L100.86 27.61L101.52 26.63L102.2 25.67L102.91 24.73L103.64 23.81L104.4 22.91L105.18 22.03L105.98 21.17L106.8 20.33L107.65 19.51L108.53 18.71L109.43 17.94L110.35 17.18L111.29 16.44L112.27 15.72L113.27 15.01L114.3 14.33L115.36 13.65L116.45 13L117.57 12.36L118.72 11.73L119.9 11.12L121.1 10.53L122.34 9.95L123.61 9.39L124.91 8.84L126.23 8.31L127.59 7.8L128.97 7.3L130.39 6.82L131.83 6.35L133.3 5.9L134.81 5.47L136.34 5.05L137.9 4.64L139.49 4.26L141.11 3.89L142.76 3.53L144.44 3.19L146.15 2.87L147.89 2.56L149.66 2.27L151.46 1.99L153.29 1.73L155.14 1.49L157.03 1.26L158.94 1.04L160.89 0.85L162.86 0.67L164.87 0.5L166.9 0.35L168.97 0.22L171.06 0.1L173.18 0L174.76 0.29L176.28 0.59Z" id="c4uhU8Yx4A"></path><path d="M166.96 0L172.21 0L172.21 31.35L166.96 31.35L166.96 0Z" id="a16ph6Ekcp"></path><path d="M172.92 90.3C168.54 100.31 165.81 106.56 164.71 109.06C164.35 109.88 164.21 110.77 164.29 111.65C164.33 112.13 164.26 111.38 164.29 111.65C164.42 113.14 165.32 114.46 166.66 115.12C167.31 115.44 166.23 114.91 166.66 115.12C168.71 116.12 171.11 116.08 173.11 114.99C173.22 114.93 173.49 114.79 173.92 114.55" id="jWzbSmao"></path><path d="M187.4 93.4C187.4 101.64 194.09 108.32 202.33 108.32C210.56 108.32 217.25 101.64 217.25 93.4C217.25 85.16 210.56 78.48 202.33 78.48C194.09 78.48 187.4 85.16 187.4 93.4Z" id="c5PWl9H5v"></path><path d="M194.25 94.04C194.25 97.87 197.52 100.98 201.54 100.98C205.57 100.98 208.83 97.87 208.83 94.04C208.83 90.21 205.57 87.11 201.54 87.11C197.52 87.11 194.25 90.21 194.25 94.04Z" id="c2NLve6T0r"></path><path d="M197.74 94.04C197.74 96.03 199.35 97.64 201.34 97.64C203.32 97.64 204.93 96.03 204.93 94.04C204.93 92.06 203.32 90.45 201.34 90.45C199.35 90.45 197.74 92.06 197.74 94.04Z" id="af1uog5AE"></path><path d="M205.01 78.14L206.29 78.43L207.53 78.83L208.72 79.34L209.86 79.94L210.93 80.63L211.94 81.41L212.88 82.27L213.74 83.21L214.52 84.22L214.61 84.37L190.04 84.37L190.13 84.22L190.91 83.21L191.78 82.27L192.71 81.41L193.72 80.63L194.8 79.94L195.93 79.34L197.12 78.83L198.36 78.43L199.65 78.14L200.97 77.96L202.33 77.9L203.68 77.96L205.01 78.14Z" id="d2UBKys1Yg"></path><path d="M214.61 84.37L190.04 84.37" id="c1CL0o3bf"></path><path d="M154.86 93.4C154.86 101.64 148.18 108.32 139.94 108.32C131.7 108.32 125.02 101.64 125.02 93.4C125.02 85.16 131.7 78.48 139.94 78.48C148.18 78.48 154.86 85.16 154.86 93.4Z" id="b3lxwPFfoO"></path><path d="M148.02 94.04C148.02 97.87 144.75 100.98 140.72 100.98C136.7 100.98 133.43 97.87 133.43 94.04C133.43 90.21 136.7 87.11 140.72 87.11C144.75 87.11 148.02 90.21 148.02 94.04Z" id="e3X7zfKxW1"></path><path d="M144.32 94.04C144.32 96.03 142.71 97.64 140.72 97.64C138.74 97.64 137.13 96.03 137.13 94.04C137.13 92.06 138.74 90.45 140.72 90.45C142.71 90.45 144.32 92.06 144.32 94.04Z" id="a11vdXcRqD"></path><path d="M142.62 78.14L143.91 78.43L145.14 78.83L146.33 79.34L147.47 79.94L148.54 80.63L149.55 81.41L150.49 82.27L151.35 83.21L152.13 84.22L152.23 84.37L127.65 84.37L127.75 84.22L128.53 83.21L129.39 82.27L130.33 81.41L131.34 80.63L132.41 79.94L133.55 79.34L134.74 78.83L135.97 78.43L137.26 78.14L138.58 77.96L139.94 77.9L141.3 77.96L142.62 78.14Z" id="a3kwYT263Y"></path><path d="M128.3 84.37L150.43 84.37C151.66 84.37 152.47 84.37 152.88 84.37" id="a9Z2d3knBD"></path><path d="M211.91 83.9C211.91 83.9 211.91 83.9 211.91 83.9C215.42 83.78 218.87 82.98 222.08 81.56C222.2 81.51 222.5 81.38 222.97 81.17L215.39 86.48L211.91 83.9Z" id="k1gtnOomma"></path><path d="M130.13 83.89C130.13 83.89 130.13 83.89 130.13 83.89C126.62 83.77 123.17 82.97 119.96 81.55C119.84 81.5 119.54 81.37 119.07 81.16L126.65 86.47L130.13 83.89Z" id="higsTn0p"></path><path d="M145.6 94.04C145.6 96.73 143.41 98.92 140.72 98.92C138.03 98.92 135.85 96.73 135.85 94.04C135.85 91.35 138.03 89.17 140.72 89.17C143.41 89.17 145.6 91.35 145.6 94.04Z" id="c5awog2wu"></path><path d="M206.26 94.04C206.26 96.73 204.08 98.92 201.39 98.92C198.7 98.92 196.51 96.73 196.51 94.04C196.51 91.35 198.7 89.17 201.39 89.17C204.08 89.17 206.26 91.35 206.26 94.04Z" id="bZihDIneF"></path></defs><g><g><g><use xlink:href="#a3c4Fg3vpc" opacity="1" fill="#711ed6" fill-opacity="1"></use></g><g><use xlink:href="#d2CKYA5VyY" opacity="1" fill="#500181" fill-opacity="1"></use></g><g><use xlink:href="#a2gDz3u8iX" opacity="1" fill="#fee433" fill-opacity="1"></use></g><g><use xlink:href="#a1v6i5pfd" opacity="1" fill="#fee433" fill-opacity="1"></use></g><g><use xlink:href="#b8DCEvMHC" opacity="1" fill="#dfca3c" fill-opacity="0.94"></use></g><g><use xlink:href="#b1r9kt9SRW" opacity="1" fill="#f8b289" fill-opacity="1"></use></g><g><use xlink:href="#e1b5b0DqqE" opacity="1" fill="#dfca3c" fill-opacity="0.94"></use></g><g><use xlink:href="#eCyIvpZGr" opacity="1" fill="#e9a882" fill-opacity="1"></use></g><g><use xlink:href="#crWirW4Td" opacity="1" fill="#dfca3c" fill-opacity="0.94"></use></g><g><use xlink:href="#awJRIFtTz" opacity="1" fill="#dfca3c" fill-opacity="0.94"></use></g><g><use xlink:href="#azs7o6EZZ" opacity="1" fill="#dfca3c" fill-opacity="0.94"></use></g><g><use xlink:href="#c3v0uA79BK" opacity="1" fill="#f8b289" fill-opacity="1"></use></g><g><g><use xlink:href="#eKYXJzicE" opacity="1" fill-opacity="0" stroke="#000000" stroke-width="1" stroke-opacity="1"></use></g></g><g><use xlink:href="#b3RXGGmmKu" opacity="1" fill="#652727" fill-opacity="1"></use></g><g><use xlink:href="#j3eQ1INUCa" opacity="1" fill="#ffffff" fill-opacity="1"></use></g><g><use xlink:href="#c2uQqrYh7R" opacity="1" fill="#da1355" fill-opacity="1"></use></g><g><use xlink:href="#aAIosLPLl" opacity="1" fill="#3e250a" fill-opacity="1"></use></g><g><use xlink:href="#b2MOoiFRcj" opacity="1" fill="#3e250a" fill-opacity="1"></use></g><g><use xlink:href="#a64V54H5XU" opacity="1" fill="#fee433" fill-opacity="1"></use></g><g><use xlink:href="#c4uhU8Yx4A" opacity="1" fill="#fee433" fill-opacity="1"></use></g><g><use xlink:href="#a16ph6Ekcp" opacity="1" fill="#e4ce3f" fill-opacity="0.94"></use></g><g><g><use xlink:href="#jWzbSmao" opacity="1" fill-opacity="0" stroke="#b48162" stroke-width="1" stroke-opacity="1"></use></g></g><g><g><use xlink:href="#c5PWl9H5v" opacity="1" fill="#ffffff" fill-opacity="1"></use></g><g><use xlink:href="#c2NLve6T0r" opacity="1" fill="#37a220" fill-opacity="1"></use></g><g><use xlink:href="#af1uog5AE" opacity="1" fill="#1d0d0d" fill-opacity="1"></use></g><g><use xlink:href="#d2UBKys1Yg" opacity="1" fill="#f9b086" fill-opacity="1"></use><g><use xlink:href="#d2UBKys1Yg" opacity="1" fill-opacity="0" stroke="#e09e78" stroke-width="1" stroke-opacity="1"></use></g></g><g><g><use xlink:href="#c1CL0o3bf" opacity="1" fill-opacity="0" stroke="#000000" stroke-width="1" stroke-opacity="1"></use></g></g></g><g><use xlink:href="#b3lxwPFfoO" opacity="1" fill="#ffffff" fill-opacity="1"></use></g><g><use xlink:href="#e3X7zfKxW1" opacity="1" fill="#37a220" fill-opacity="1"></use></g><g><use xlink:href="#a11vdXcRqD" opacity="1" fill="#1d0d0d" fill-opacity="1"></use></g><g><use xlink:href="#a3kwYT263Y" opacity="1" fill="#f9b086" fill-opacity="1"></use><g><use xlink:href="#a3kwYT263Y" opacity="1" fill-opacity="0" stroke="#e09e78" stroke-width="1" stroke-opacity="1"></use></g></g><g><g><use xlink:href="#a9Z2d3knBD" opacity="1" fill-opacity="0" stroke="#000000" stroke-width="1" stroke-opacity="1"></use></g></g><g><use xlink:href="#k1gtnOomma" opacity="1" fill="#000000" fill-opacity="1"></use></g><g><use xlink:href="#higsTn0p" opacity="1" fill="#000000" fill-opacity="1"></use></g><g><g><use xlink:href="#c5awog2wu" opacity="1" fill-opacity="0" stroke="#c69e30" stroke-width="0.5" stroke-opacity="1"></use></g></g><g><g><use xlink:href="#bZihDIneF" opacity="1" fill-opacity="0" stroke="#c69e30" stroke-width="0.5" stroke-opacity="1"></use></g></g></g></g></svg>