<?xml version="1.0" encoding="UTF-8" standalone="no"?>
<!DOCTYPE svg PUBLIC "-//W3C//DTD SVG 1.1//EN" "http://www.w3.org/Graphics/SVG/1.1/DTD/svg11.dtd">
<svg version="1.1" xmlns="http://www.w3.org/2000/svg" xmlns:xlink="http://www.w3.org/1999/xlink" preserveAspectRatio="xMidYMid meet" viewBox="0 0 343 348.02" width="343" height="348.02"><defs><path d="M343 176.45C343 270.59 266.58 347.01 172.44 347.01C78.31 347.01 1.89 270.59 1.89 176.45C1.89 82.32 78.31 5.9 172.44 5.9C266.58 5.9 343 82.32 343 176.45Z" id="av2fIMnLK"></path><path d="M179.82 197.57L183.87 198.02L187.87 198.65L191.82 199.45L195.72 200.43L199.56 201.56L203.33 202.86L207.04 204.32L210.68 205.93L214.25 207.69L217.75 209.59L221.17 211.65L224.5 213.84L227.75 216.16L230.92 218.63L233.99 221.22L236.97 223.93L239.85 226.77L242.63 229.72L245.31 232.79L247.88 235.98L250.33 239.27L252.68 242.66L254.91 246.15L257.01 249.75L259 253.43L260.86 257.2L262.58 261.06L264.18 265.01L265.64 269.03L266.95 273.13L268.13 277.3L269.16 281.54L270.04 285.84L270.76 290.2L271.34 294.62L271.75 299.1L272 303.62L272.08 308.2L272 312.77L271.91 314.35L266.91 317.87L261.39 321.44L255.73 324.81L249.93 327.96L244 330.89L237.94 333.6L231.76 336.07L225.47 338.31L219.06 340.3L212.55 342.05L205.94 343.54L199.23 344.78L192.44 345.75L185.56 346.44L178.61 346.87L171.58 347.01L164.55 346.87L157.6 346.44L150.72 345.75L143.93 344.78L137.23 343.54L130.61 342.05L124.1 340.3L117.7 338.31L111.4 336.07L105.22 333.6L99.16 330.89L93.23 327.96L87.43 324.81L81.77 321.44L76.25 317.87L71.25 314.35L71.16 312.77L71.08 308.2L71.16 303.62L71.41 299.1L71.83 294.62L72.4 290.2L73.12 285.84L74 281.54L75.03 277.3L76.21 273.13L77.53 269.03L78.98 265.01L80.58 261.06L82.31 257.2L84.16 253.43L86.15 249.75L88.25 246.15L90.48 242.66L92.83 239.27L95.29 235.98L97.85 232.79L100.53 229.72L103.31 226.77L106.19 223.93L109.17 221.22L112.24 218.63L115.41 216.16L118.66 213.84L121.99 211.65L125.41 209.59L128.91 207.69L132.48 205.93L136.12 204.32L139.83 202.86L143.6 201.56L147.44 200.43L151.34 199.45L155.29 198.65L159.29 198.02L163.34 197.57L167.44 197.29L171.58 197.2L175.72 197.29L179.82 197.57Z" id="a4hJ6wd2xH"></path><path d="M139.86 172.51L208.55 172.51C208.55 197.47 208.55 213.07 208.55 219.31C208.55 228.59 204.2 237.33 196.79 242.93C192.28 246.34 198.94 241.3 196.54 243.12C183.32 253.11 165.09 253.11 151.87 243.12C149.47 241.3 156.14 246.34 151.62 242.93C144.21 237.33 139.86 228.59 139.86 219.31C139.86 213.07 139.86 197.47 139.86 172.51Z" id="a2ab8noWC0"></path><path d="M141.36 167.65L207.05 167.65C207.05 192.27 207.05 207.66 207.05 213.82C207.05 222.99 202.82 231.65 195.59 237.29C191.31 240.62 198.2 235.25 195.98 236.98C183.18 246.96 165.23 246.96 152.43 236.98C150.22 235.25 157.1 240.62 152.82 237.29C145.59 231.65 141.36 222.99 141.36 213.82C141.36 207.66 141.36 192.27 141.36 167.65Z" id="j2s1jGwDZV"></path><path d="M256.43 90.52L256.43 97.77L256.43 104.87L256.43 111.84L256.43 118.67L256.43 125.36L256.43 131.92L256.43 138.34L256.43 144.62L256.43 150.77L256.43 156.78L256.43 162.65L256.43 168.39L256.43 173.98L256.43 179.44L256.43 184.77L256.43 189.95L256.43 195L256.43 199.91L256.43 204.69L256.43 209.33L256.43 213.83L256.43 218.19L256.43 222.42L256.43 226.51L256.43 230.46L256.43 234.28L256.43 237.95L256.43 241.5L256.43 244.9L256.43 248.17L256.43 251.3L256.43 254.29L256.43 257.15L256.43 259.86L256.43 262.45L256.43 264.89L256.43 267.2L256.43 269.37L256.43 271.4L256.43 273.3L256.43 273.43L256.42 273.55L256.4 273.68L256.39 273.81L256.36 273.93L256.34 274.05L256.3 274.17L256.27 274.29L256.23 274.4L256.18 274.51L256.13 274.63L256.08 274.73L256.02 274.84L255.96 274.94L255.89 275.05L255.82 275.14L255.75 275.24L255.68 275.33L255.6 275.42L255.51 275.51L255.43 275.59L255.34 275.67L255.24 275.75L255.15 275.82L255.05 275.89L254.95 275.96L254.85 276.02L254.74 276.07L254.63 276.13L254.52 276.18L254.41 276.22L254.29 276.26L254.17 276.3L254.05 276.33L253.93 276.36L253.81 276.38L253.69 276.4L253.56 276.41L253.43 276.42L253.3 276.42L253.15 276.42L253.01 276.42L252.89 276.42L252.79 276.42L252.7 276.42L252.62 276.42L252.55 276.42L252.49 276.42L252.43 276.42L252.37 276.42L252.32 276.42L252.27 276.42L252.21 276.42L252.15 276.42L252.08 276.42L252.01 276.42L251.92 276.42L251.82 276.42L251.7 276.42L251.57 276.42L251.42 276.42L251.24 276.42L251.05 276.42L250.82 276.42L250.58 276.42L250.3 276.42L249.99 276.42L249.65 276.42L249.27 276.42L248.86 276.42L248.4 276.42L247.91 276.42L247.37 276.42L246.78 276.42L246.15 276.42L245.47 276.42L244.74 276.42L243.95 276.42L243.11 276.42L242.21 276.42L241.94 276.42L241.65 276.42L241.35 276.42L241.03 276.42L240.71 276.42L240.37 276.42L240.02 276.42L239.66 276.42L239.28 276.42L238.89 276.42L238.49 276.42L238.08 276.42L237.65 276.42L237.22 276.42L236.77 276.42L236.3 276.42L235.83 276.42L235.34 276.42L234.84 276.42L234.33 276.42L233.81 276.42L233.27 276.42L232.72 276.42L232.16 276.42L231.58 276.42L231 276.42L230.4 276.42L229.79 276.42L229.16 276.42L228.53 276.42L227.88 276.42L227.22 276.42L226.55 276.42L225.86 276.42L225.16 276.42L224.45 276.42L223.73 276.42L222.99 276.42L222.25 276.42L221.49 276.42L221.01 276.42L220.55 276.42L220.1 276.42L219.65 276.42L219.22 276.42L218.79 276.42L218.37 276.42L217.96 276.42L217.56 276.42L217.17 276.42L216.79 276.42L216.41 276.42L216.05 276.42L215.69 276.42L215.35 276.42L215.01 276.42L214.68 276.42L214.36 276.42L214.05 276.42L213.75 276.42L213.46 276.42L213.17 276.42L212.9 276.42L212.63 276.42L212.37 276.42L212.12 276.42L211.88 276.42L211.65 276.42L211.43 276.42L211.22 276.42L211.02 276.42L210.82 276.42L210.63 276.42L210.46 276.42L210.29 276.42L210.13 276.42L209.98 276.42L209.84 276.42L209.71 276.42L209.58 276.42L209.47 276.42L209.37 276.41L209.26 276.4L209.15 276.39L209.05 276.37L208.95 276.35L208.84 276.32L208.75 276.29L208.65 276.25L208.55 276.22L208.46 276.17L208.36 276.13L208.27 276.08L208.19 276.03L208.1 275.97L208.02 275.91L207.94 275.85L207.86 275.79L207.78 275.72L207.71 275.65L207.64 275.57L207.57 275.5L207.51 275.42L207.44 275.34L207.39 275.25L207.33 275.17L207.28 275.08L207.23 274.99L207.18 274.9L207.14 274.8L207.1 274.71L207.07 274.61L207.04 274.51L207.01 274.41L206.99 274.31L206.97 274.2L206.95 274.1L206.94 273.99L206.93 273.88L206.93 273.77L206.93 271.87L206.93 269.83L206.93 267.66L206.93 265.34L206.93 262.89L206.93 260.3L206.93 257.58L206.93 254.72L206.93 251.71L206.93 248.58L206.93 245.3L206.93 241.89L206.93 238.34L206.93 234.65L206.93 230.82L206.93 226.86L206.93 222.76L206.93 218.52L206.93 214.15L206.93 209.64L206.93 204.99L206.93 200.2L206.93 195.27L206.93 190.21L206.93 185.01L206.93 179.67L206.93 174.2L206.93 168.59L206.93 162.84L206.93 156.95L206.93 150.93L206.93 144.77L206.93 138.47L206.93 132.03L206.93 125.46L206.93 118.74L206.93 111.89L206.93 104.91L206.93 97.78L206.93 90.52L206.93 90.52L256.43 90.52Z" id="m9EgjgXPR"></path><path d="M91.87 90.52L141.36 90.52C141.36 188 141.36 248.93 141.36 273.3C141.36 275.02 139.96 276.42 138.24 276.42C136.02 276.42 139.52 276.42 127.15 276.42C123.55 276.42 116.64 276.42 106.42 276.42C100.07 276.42 96.1 276.42 94.52 276.42C93.05 276.42 91.87 275.24 91.87 273.77C91.87 249.34 91.87 188.26 91.87 90.52Z" id="cY4TMave"></path><path d="M130.52 164.15L133.52 164.15L133.52 276.42L130.52 276.42L130.52 164.15Z" id="a2FdyJ80Oo"></path><path d="M106.23 119.46L109.23 119.46L109.23 276.42L106.23 276.42L106.23 119.46Z" id="h4zjaEQzRH"></path><path d="M141.36 170.69L207.05 170.69L207.05 188.95C204.29 190.19 202.56 190.97 201.87 191.28C184.27 199.17 164.14 199.17 146.54 191.28C145.85 190.97 144.13 190.19 141.36 188.95L141.36 170.69Z" id="c1eaDH2Sb"></path><path d="M214.7 145.8L217.7 145.8L217.7 276.42L214.7 276.42L214.7 145.8Z" id="a5xCMZ6fDc"></path><path d="M114.36 131.39L117.36 131.39L117.36 276.42L114.36 276.42L114.36 131.39Z" id="c6XexP5RqY"></path><path d="M231.54 136.11L234.54 136.11L234.54 276.42L231.54 276.42L231.54 136.11Z" id="aYC3cdahY"></path><path d="M184.34 5.58L189.37 5.95L194.14 6.46L198.67 7.11L202.95 7.89L207 8.81L210.82 9.86L214.42 11.04L217.8 12.34L220.98 13.77L223.95 15.31L226.73 16.97L229.32 18.75L231.73 20.63L233.96 22.62L236.03 24.72L237.93 26.91L239.68 29.21L241.28 31.6L242.74 34.09L244.06 36.66L245.25 39.32L246.32 42.07L247.28 44.9L248.12 47.8L248.86 50.78L249.51 53.84L250.07 56.96L250.54 60.15L250.94 63.41L251.26 66.72L251.34 67.65L251.95 67.4L252.82 67.19L253.8 67.07L254.92 67.03L256.06 67.07L257.11 67.19L258.07 67.4L258.95 67.7L259.74 68.08L260.46 68.56L261.1 69.12L261.67 69.78L262.17 70.53L262.62 71.38L263 72.33L263.32 73.38L263.6 74.52L263.83 75.78L264.01 77.13L264.15 78.59L264.25 80.16L264.32 81.84L264.36 83.63L264.37 85.53L264.36 87.48L264.32 89.37L264.25 91.22L264.15 93.01L264.01 94.75L263.83 96.41L263.6 98L263.32 99.51L263 100.94L262.62 102.27L262.17 103.51L261.67 104.64L261.1 105.66L260.46 106.56L259.74 107.35L258.95 108L258.07 108.52L257.11 108.9L256.06 109.13L254.92 109.21L253.8 109.13L252.82 108.9L251.95 108.52L251.2 108L250.56 107.35L250.43 107.15L250.23 107.92L249.75 109.59L249.23 111.26L248.67 112.94L248.06 114.62L247.42 116.3L246.74 117.99L246.04 119.67L245.3 121.34L244.53 123.02L243.75 124.68L242.94 126.33L242.11 127.97L241.26 129.6L240.4 131.21L239.52 132.8L238.64 134.38L237.75 135.93L236.86 137.46L235.96 138.97L235.07 140.44L234.17 141.89L233.29 143.31L232.41 144.69L231.54 146.04L230.69 147.36L229.85 148.63L229.03 149.86L228.22 151.05L227.45 152.2L226.69 153.3L225.97 154.35L225.28 155.35L224.58 156.33L223.86 157.33L223.11 158.33L222.32 159.34L221.51 160.35L220.66 161.38L219.79 162.4L218.88 163.42L217.95 164.44L216.98 165.46L215.98 166.47L214.95 167.47L213.89 168.47L212.8 169.45L211.68 170.42L210.53 171.38L209.34 172.32L208.13 173.24L206.88 174.14L205.61 175.01L204.3 175.87L202.96 176.69L201.59 177.49L200.19 178.26L198.76 178.99L197.3 179.7L195.8 180.36L194.27 180.99L192.72 181.58L191.13 182.13L189.51 182.64L187.86 183.09L186.17 183.51L184.46 183.87L182.71 184.18L180.93 184.45L179.12 184.65L177.28 184.8L175.41 184.89L173.5 184.92L171.82 184.89L170.16 184.81L168.51 184.68L166.89 184.5L165.28 184.27L163.7 184L162.14 183.68L160.61 183.32L159.09 182.93L157.6 182.49L156.13 182.01L154.69 181.51L153.27 180.97L151.88 180.39L150.52 179.79L149.18 179.17L147.87 178.52L146.58 177.84L145.32 177.14L144.1 176.43L142.9 175.69L141.73 174.94L140.59 174.18L139.48 173.4L138.41 172.62L137.36 171.82L136.35 171.02L135.37 170.22L134.42 169.41L133.51 168.6L132.63 167.79L131.79 166.99L130.98 166.19L130.21 165.39L129.47 164.61L128.77 163.83L128.11 163.07L127.49 162.32L126.9 161.58L126.36 160.87L125.8 160.12L125.18 159.29L124.5 158.37L123.77 157.38L122.99 156.31L122.16 155.18L121.29 153.97L120.39 152.7L119.45 151.36L118.47 149.97L117.48 148.51L116.46 147.01L115.42 145.45L114.37 143.84L113.3 142.19L112.23 140.5L111.16 138.77L110.09 137.01L109.03 135.21L107.97 133.38L106.93 131.52L105.9 129.64L104.9 127.74L103.92 125.82L102.97 123.88L102.05 121.94L101.17 119.98L100.33 118.02L99.53 116.06L98.78 114.09L98.09 112.13L97.45 110.17L96.87 108.23L96.56 107.07L96.28 107.48L95.64 108.13L94.89 108.65L94.03 109.03L93.04 109.26L91.92 109.34L90.78 109.26L89.73 109.03L88.77 108.65L87.9 108.13L87.11 107.48L86.39 106.7L85.75 105.79L85.18 104.77L84.67 103.64L84.23 102.4L83.85 101.07L83.52 99.64L83.25 98.13L83.02 96.54L82.84 94.88L82.7 93.15L82.6 91.35L82.53 89.51L82.49 87.61L82.48 85.67L82.49 83.77L82.53 81.98L82.6 80.3L82.7 78.73L82.84 77.27L83.02 75.91L83.25 74.66L83.52 73.51L83.85 72.46L84.23 71.52L84.67 70.67L85.18 69.91L85.75 69.26L86.39 68.69L87.11 68.22L87.9 67.83L88.77 67.54L89.73 67.33L90.78 67.2L91.92 67.16L93.04 67.2L94.03 67.33L94.89 67.54L95.64 67.83L95.66 67.84L95.74 66.72L96.07 63.41L96.47 60.15L96.94 56.96L97.5 53.84L98.14 50.78L98.89 47.8L99.73 44.9L100.68 42.07L101.75 39.32L102.95 36.66L104.27 34.09L105.73 31.6L107.33 29.21L109.07 26.91L110.98 24.72L113.04 22.62L115.28 20.63L117.69 18.75L120.28 16.97L123.06 15.31L126.03 13.77L129.21 12.34L132.59 11.04L136.19 9.86L140.01 8.81L144.06 7.89L148.34 7.11L152.87 6.46L157.64 5.95L162.66 5.58L167.95 5.36L173.5 5.28L179.06 5.36L184.34 5.58Z" id="gjpJHMEQW"></path><path d="" id="b1tLct2CxD"></path><path d="M194.05 132.51C195.67 132.51 196.99 133.83 196.99 135.46C196.99 139.47 196.99 133.87 196.99 134.21C196.99 145.98 187.45 155.52 175.68 155.52C170.74 155.52 177.02 155.52 172.02 155.52C160.41 155.52 151 146.11 151 134.5C151 134.1 151 139.82 151 135.9C151 134.03 152.51 132.51 154.38 132.51C162.9 132.51 185.44 132.51 194.05 132.51Z" id="b1zqZJf7Z"></path><path d="M154.24 132.51L193.75 132.51C193.28 134.53 192.99 135.78 192.88 136.29C192.41 138.29 190.63 139.7 188.58 139.7C182.18 139.7 166.74 139.7 160.41 139.7C158.12 139.7 156.09 138.23 155.39 136.05C155.23 135.58 154.85 134.4 154.24 132.51Z" id="b61rKYfZZg"></path><path d="M189.18 149.25C188.13 153.22 182.03 155.23 174.03 155.52C166.03 155.82 159.18 152.82 159.18 149.75C159.18 148.41 161.84 147.33 167.16 146.51C169.09 146.21 171.06 146.73 172.58 147.94C172.75 148.07 173.16 148.4 173.81 148.92C173.81 148.92 173.81 148.92 173.81 148.92C175.95 146.61 179.08 145.48 182.21 145.88C187.28 146.54 189.6 147.66 189.18 149.25Z" id="c2Sp3QWWc7"></path><path d="M156.86 72.3C157.05 74.74 149.27 70.99 140.1 71.69C130.93 72.4 123.81 77.3 123.62 74.86C123.44 72.41 129.25 67.96 138.42 67.26C147.59 66.55 156.67 69.86 156.86 72.3Z" id="b1wrD3UHvR"></path><path d="M188.27 72.3C188.09 74.74 195.87 70.99 205.04 71.69C214.21 72.4 221.32 77.3 221.51 74.86C221.7 72.41 215.89 67.96 206.72 67.26C197.54 66.55 188.46 69.86 188.27 72.3Z" id="a5sLUrUi5"></path><path d="M179.11 1.01C204.05 2.65 222.9 7.86 235.67 16.65C244.18 22.5 250.61 39.34 254.96 67.16C254.96 67.16 254.96 67.16 254.96 67.16C254.96 67.16 254.96 67.16 254.96 67.16C254.96 67.16 254.96 67.16 254.96 67.16L171.09 29.45L179.11 1.01Z" id="d8BglhgCo7"></path><path d="M175.18 1.01C146.69 2.26 126.06 7.74 113.29 17.45C100.53 27.16 94.12 42.25 94.06 62.73C144.16 44.8 175.59 30.98 188.35 21.27C201.12 11.56 196.73 4.81 175.18 1.01Z" id="b16QH0jENB"></path><path d="M170.67 1.01L175.92 1.01L175.92 31.43L170.67 31.43L170.67 1.01Z" id="a72VxWCNf"></path><path d="M174.92 91.31C170.54 101.32 167.81 107.57 166.71 110.07C166.35 110.89 166.21 111.78 166.29 112.66C166.33 113.14 166.26 112.39 166.29 112.66C166.42 114.15 167.32 115.47 168.66 116.13C169.31 116.45 168.23 115.92 168.66 116.13C170.71 117.13 173.11 117.09 175.11 116C175.22 115.94 175.49 115.8 175.92 115.56" id="a14erNuzxj"></path><path d="M253.13 56.36C248.84 37.21 245.47 37.21 243.03 56.36L243.03 176.45L252.63 183.47C257.25 117.88 257.42 75.51 253.13 56.36Z" id="gxG3q4mC"></path><path d="M95.08 49.66C99.37 30.51 102.74 30.51 105.18 49.66L105.18 169.76L95.08 171.52C90.8 109.43 90.8 68.81 95.08 49.66Z" id="dkcS3rWiL"></path><path d="M188.27 95.1C188.27 103.34 194.96 110.02 203.19 110.02C211.43 110.02 218.12 103.34 218.12 95.1C218.12 86.86 211.43 80.18 203.19 80.18C194.96 80.18 188.27 86.86 188.27 95.1Z" id="czjhDi57j"></path><path d="M195.57 95.05C195.57 98.88 198.83 101.99 202.86 101.99C206.88 101.99 210.15 98.88 210.15 95.05C210.15 91.22 206.88 88.12 202.86 88.12C198.83 88.12 195.57 91.22 195.57 95.05Z" id="b3yG5nLAem"></path><path d="M199.26 95.05C199.26 97.04 200.88 98.65 202.86 98.65C204.84 98.65 206.45 97.04 206.45 95.05C206.45 93.07 204.84 91.46 202.86 91.46C200.88 91.46 199.26 93.07 199.26 95.05Z" id="c6yZiTjGp"></path><path d="M205.91 80.57L207.2 80.86L208.43 81.27L209.61 81.78L210.72 82.39L211.76 83.09L212.71 83.87L213.58 84.73L214.28 85.57L192.11 85.57L192.8 84.73L193.67 83.87L194.63 83.09L195.67 82.39L196.78 81.78L197.95 81.27L199.19 80.86L200.48 80.57L201.82 80.38L203.19 80.32L204.57 80.38L205.91 80.57Z" id="a98tGSAP6q"></path><path d="M215.18 85.57L193.88 85.57C192.74 85.57 191.97 85.57 191.56 85.57" id="lgPHc8XNt"></path><path d="M197.98 95.05C197.98 97.74 200.17 99.93 202.86 99.93C205.55 99.93 207.73 97.74 207.73 95.05C207.73 92.36 205.55 90.18 202.86 90.18C200.17 90.18 197.98 92.36 197.98 95.05Z" id="b5XGFcQx3C"></path><path d="M211.74 85.84C212.55 85.47 213.05 85.24 213.25 85.15C214.25 84.69 215.13 83.99 215.81 83.12C215.95 82.95 216.28 82.52 216.82 81.83C216.27 83.3 215.92 84.22 215.78 84.59C215.41 85.54 214.45 86.13 213.43 86.02C213.21 86 212.64 85.94 211.74 85.84Z" id="aCwcuCqNM"></path><path d="M210.76 85.44C211.43 85.05 211.86 84.81 212.02 84.71C212.88 84.22 213.61 83.55 214.18 82.74C214.31 82.55 214.65 82.08 215.18 81.32C214.55 82.96 214.15 83.98 213.99 84.39C213.69 85.16 212.93 85.63 212.11 85.56C211.93 85.55 211.48 85.51 210.76 85.44Z" id="h1gXaNRLWI"></path><path d="M208.84 85.71C209.51 85.32 209.94 85.08 210.11 84.98C210.96 84.49 211.7 83.82 212.26 83.01C212.4 82.82 212.73 82.35 213.26 81.59C212.63 83.23 212.23 84.25 212.07 84.66C211.77 85.43 211.01 85.9 210.19 85.83C210.01 85.81 209.56 85.77 208.84 85.71Z" id="d1ExvBYXGm"></path><path d="M156.86 95.1C156.86 103.34 150.18 110.02 141.94 110.02C133.7 110.02 127.02 103.34 127.02 95.1C127.02 86.86 133.7 80.18 141.94 80.18C150.18 80.18 156.86 86.86 156.86 95.1Z" id="a1weDTRckk"></path><path d="M149.57 95.05C149.57 98.88 146.3 101.99 142.27 101.99C138.25 101.99 134.98 98.88 134.98 95.05C134.98 91.22 138.25 88.12 142.27 88.12C146.3 88.12 149.57 91.22 149.57 95.05Z" id="bsx10No3Q"></path><path d="M145.87 95.05C145.87 97.04 144.26 98.65 142.27 98.65C140.29 98.65 138.68 97.04 138.68 95.05C138.68 93.07 140.29 91.46 142.27 91.46C144.26 91.46 145.87 93.07 145.87 95.05Z" id="e1JywopEO0"></path><path d="M144.65 80.57L145.94 80.86L147.18 81.27L148.36 81.78L149.47 82.39L150.5 83.09L151.46 83.87L152.33 84.73L153.03 85.57L130.85 85.57L131.55 84.73L132.42 83.87L133.38 83.09L134.41 82.39L135.52 81.78L136.7 81.27L137.94 80.86L139.23 80.57L140.56 80.38L141.94 80.32L143.32 80.38L144.65 80.57Z" id="a3gTv2tS53"></path><path d="M129.95 85.57L151.25 85.57C152.39 85.57 153.17 85.57 153.58 85.57" id="c3wYnFAyT"></path><path d="M147.15 95.05C147.15 97.74 144.97 99.93 142.27 99.93C139.58 99.93 137.4 97.74 137.4 95.05C137.4 92.36 139.58 90.18 142.27 90.18C144.97 90.18 147.15 92.36 147.15 95.05Z" id="ePF3ejg4M"></path><path d="M133.4 85.84C132.59 85.47 132.09 85.24 131.88 85.15C130.88 84.69 130 83.99 129.32 83.12C129.19 82.95 128.85 82.52 128.31 81.83C128.87 83.3 129.22 84.22 129.36 84.59C129.72 85.54 130.69 86.13 131.7 86.02C131.93 86 132.49 85.94 133.4 85.84Z" id="gwhqN4SFk"></path><path d="M134.38 85.44C133.7 85.05 133.28 84.81 133.11 84.71C132.26 84.22 131.52 83.55 130.95 82.74C130.82 82.55 130.49 82.08 129.95 81.32C130.59 82.96 130.99 83.98 131.14 84.39C131.44 85.16 132.21 85.63 133.03 85.56C133.21 85.55 133.66 85.51 134.38 85.44Z" id="aJ14wv7Ct"></path><path d="M136.3 85.71C135.62 85.32 135.2 85.08 135.03 84.98C134.17 84.49 133.44 83.82 132.87 83.01C132.74 82.82 132.4 82.35 131.87 81.59C132.51 83.23 132.9 84.25 133.06 84.66C133.36 85.43 134.13 85.9 134.94 85.83C135.12 85.81 135.57 85.77 136.3 85.71Z" id="c1fJaFuA0p"></path></defs><g><g><g><use xlink:href="#av2fIMnLK" opacity="1" fill="#711ed6" fill-opacity="1"></use></g><g><use xlink:href="#a4hJ6wd2xH" opacity="1" fill="#500181" fill-opacity="1"></use></g><g><use xlink:href="#a2ab8noWC0" opacity="1" fill="#3b0c62" fill-opacity="1"></use></g><g><use xlink:href="#j2s1jGwDZV" opacity="1" fill="#fbbb95" fill-opacity="1"></use></g><g><use xlink:href="#m9EgjgXPR" opacity="1" fill="#f9ea84" fill-opacity="1"></use></g><g><use xlink:href="#cY4TMave" opacity="1" fill="#f9ea84" fill-opacity="1"></use></g><g><use xlink:href="#a2FdyJ80Oo" opacity="1" fill="#e1d477" fill-opacity="1"></use></g><g><use xlink:href="#h4zjaEQzRH" opacity="1" fill="#e1d477" fill-opacity="1"></use></g><g><use xlink:href="#c1eaDH2Sb" opacity="1" fill="#e9af8d" fill-opacity="1"></use></g><g><use xlink:href="#a5xCMZ6fDc" opacity="1" fill="#e1d477" fill-opacity="1"></use></g><g><use xlink:href="#c6XexP5RqY" opacity="1" fill="#e1d477" fill-opacity="1"></use></g><g><use xlink:href="#aYC3cdahY" opacity="1" fill="#e1d477" fill-opacity="1"></use></g><g><use xlink:href="#gjpJHMEQW" opacity="1" fill="#fbbb95" fill-opacity="1"></use></g><g><g><use xlink:href="#b1tLct2CxD" opacity="1" fill-opacity="0" stroke="#000000" stroke-width="1" stroke-opacity="1"></use></g></g><g><use xlink:href="#b1zqZJf7Z" opacity="1" fill="#652727" fill-opacity="1"></use></g><g><use xlink:href="#b61rKYfZZg" opacity="1" fill="#ffffff" fill-opacity="1"></use></g><g><use xlink:href="#c2Sp3QWWc7" opacity="1" fill="#da1355" fill-opacity="1"></use></g><g><use xlink:href="#b1wrD3UHvR" opacity="1" fill="#3e250a" fill-opacity="0.69"></use></g><g><use xlink:href="#a5sLUrUi5" opacity="1" fill="#3e250a" fill-opacity="0.69"></use></g><g><use xlink:href="#d8BglhgCo7" opacity="1" fill="#f9ea84" fill-opacity="1"></use></g><g><use xlink:href="#b16QH0jENB" opacity="1" fill="#f9ea84" fill-opacity="1"></use></g><g><use xlink:href="#a72VxWCNf" opacity="1" fill="#e1d477" fill-opacity="1"></use></g><g><g><use xlink:href="#a14erNuzxj" opacity="1" fill-opacity="0" stroke="#b48162" stroke-width="1" stroke-opacity="1"></use></g></g><g><use xlink:href="#gxG3q4mC" opacity="1" fill="#f9ea84" fill-opacity="1"></use></g><g><use xlink:href="#dkcS3rWiL" opacity="1" fill="#f9ea84" fill-opacity="1"></use></g><g><use xlink:href="#czjhDi57j" opacity="1" fill="#ffffff" fill-opacity="1"></use></g><g><use xlink:href="#b3yG5nLAem" opacity="1" fill="#37a220" fill-opacity="1"></use></g><g><use xlink:href="#c6yZiTjGp" opacity="1" fill="#1d0d0d" fill-opacity="1"></use></g><g><use xlink:href="#a98tGSAP6q" opacity="1" fill="#f9b086" fill-opacity="1"></use><g><use xlink:href="#a98tGSAP6q" opacity="1" fill-opacity="0" stroke="#e09e78" stroke-width="1" stroke-opacity="1"></use></g></g><g><g><use xlink:href="#lgPHc8XNt" opacity="1" fill-opacity="0" stroke="#000000" stroke-width="1" stroke-opacity="1"></use></g></g><g><g><use xlink:href="#b5XGFcQx3C" opacity="1" fill-opacity="0" stroke="#c69e30" stroke-width="0.5" stroke-opacity="1"></use></g></g><g><use xlink:href="#aCwcuCqNM" opacity="1" fill="#000000" fill-opacity="1"></use></g><g><use xlink:href="#h1gXaNRLWI" opacity="1" fill="#000000" fill-opacity="1"></use></g><g><use xlink:href="#d1ExvBYXGm" opacity="1" fill="#000000" fill-opacity="1"></use></g><g><use xlink:href="#a1weDTRckk" opacity="1" fill="#ffffff" fill-opacity="1"></use></g><g><use xlink:href="#bsx10No3Q" opacity="1" fill="#37a220" fill-opacity="1"></use></g><g><use xlink:href="#e1JywopEO0" opacity="1" fill="#1d0d0d" fill-opacity="1"></use></g><g><use xlink:href="#a3gTv2tS53" opacity="1" fill="#f9b086" fill-opacity="1"></use><g><use xlink:href="#a3gTv2tS53" opacity="1" fill-opacity="0" stroke="#e09e78" stroke-width="1" stroke-opacity="1"></use></g></g><g><g><use xlink:href="#c3wYnFAyT" opacity="1" fill-opacity="0" stroke="#000000" stroke-width="1" stroke-opacity="1"></use></g></g><g><g><use xlink:href="#ePF3ejg4M" opacity="1" fill-opacity="0" stroke="#c69e30" stroke-width="0.5" stroke-opacity="1"></use></g></g><g><use xlink:href="#gwhqN4SFk" opacity="1" fill="#000000" fill-opacity="1"></use></g><g><use xlink:href="#aJ14wv7Ct" opacity="1" fill="#000000" fill-opacity="1"></use></g><g><use xlink:href="#c1fJaFuA0p" opacity="1" fill="#000000" fill-opacity="1"></use></g></g></g></svg>