<?xml version="1.0" encoding="UTF-8" standalone="no"?>
<!DOCTYPE svg PUBLIC "-//W3C//DTD SVG 1.1//EN" "http://www.w3.org/Graphics/SVG/1.1/DTD/svg11.dtd">
<svg version="1.1" xmlns="http://www.w3.org/2000/svg" xmlns:xlink="http://www.w3.org/1999/xlink" preserveAspectRatio="xMidYMid meet" viewBox="0 0 380 380" width="380" height="380"><defs><path d="M189.82 374.73L190.28 374.73L190 374.74L189.82 374.73ZM203.98 34.19L210.86 34.89L217.65 35.86L224.35 37.09L230.97 38.58L237.48 40.33L243.88 42.33L250.18 44.56L256.36 47.04L262.42 49.74L268.35 52.67L274.15 55.83L279.81 59.19L285.33 62.77L290.7 66.55L295.92 70.53L300.97 74.7L305.86 79.06L310.58 83.6L315.12 88.32L319.48 93.21L323.65 98.26L327.63 103.48L331.41 108.85L334.99 114.37L338.35 120.03L341.51 125.83L344.44 131.76L347.14 137.82L349.62 144L351.85 150.3L353.85 156.7L355.6 163.21L357.09 169.83L358.32 176.53L359.29 183.32L359.99 190.2L360.41 197.15L360.56 204.18L360.41 211.21L359.99 218.16L359.29 225.04L358.32 231.83L357.09 238.53L355.6 245.15L353.85 251.66L351.85 258.06L349.62 264.36L347.14 270.54L344.44 276.6L341.51 282.53L338.35 288.33L334.99 293.99L331.41 299.51L327.63 304.88L323.65 310.1L319.48 315.15L315.12 320.04L312.59 322.67L310.42 319.05L307.43 314.24L304.41 309.56L301.37 305.02L298.31 300.62L295.22 296.35L292.11 292.22L288.98 288.22L285.82 284.36L282.64 280.63L279.43 277.04L276.2 273.58L272.94 270.26L269.67 267.08L266.36 264.03L263.04 261.11L259.69 258.34L256.31 255.69L252.92 253.19L249.49 250.82L246.05 248.58L242.58 246.48L239.09 244.51L235.57 242.68L232.03 240.99L228.46 239.43L224.87 238.01L221.26 236.72L217.62 235.57L213.96 234.55L210.28 233.67L206.57 232.93L202.83 232.32L199.08 231.84L195.3 231.5L191.49 231.3L187.66 231.23L183.84 231.3L180.05 231.5L176.29 231.84L172.57 232.32L168.88 232.93L165.22 233.67L161.6 234.55L158.01 235.57L154.45 236.72L150.93 238.01L147.44 239.43L143.98 240.99L140.55 242.68L137.16 244.51L133.81 246.48L130.48 248.58L127.19 250.82L123.94 253.19L120.71 255.69L117.52 258.34L114.37 261.11L111.24 264.03L108.15 267.08L105.09 270.26L102.07 273.58L99.08 277.04L96.12 280.63L93.2 284.36L90.31 288.22L87.45 292.22L84.63 296.35L81.84 300.62L79.08 305.02L76.36 309.56L73.67 314.24L71.01 319.05L68.5 323.79L64.88 320.04L60.52 315.15L56.35 310.1L52.37 304.88L48.59 299.51L45.01 293.99L41.65 288.33L38.49 282.53L35.56 276.6L32.86 270.54L30.38 264.36L28.15 258.06L26.15 251.66L24.4 245.15L22.91 238.53L21.68 231.83L20.71 225.04L20.01 218.16L19.59 211.21L19.44 204.18L19.59 197.15L20.01 190.2L20.71 183.32L21.68 176.53L22.91 169.83L24.4 163.21L26.15 156.7L28.15 150.3L30.38 144L32.86 137.82L35.56 131.76L38.49 125.83L41.65 120.03L45.01 114.37L48.59 108.85L52.37 103.48L56.35 98.26L60.52 93.21L64.88 88.32L69.42 83.6L74.14 79.06L79.03 74.7L84.08 70.53L89.3 66.55L94.67 62.77L100.19 59.19L105.85 55.83L111.65 52.67L117.58 49.74L123.64 47.04L129.82 44.56L136.12 42.33L142.52 40.33L149.03 38.58L155.65 37.09L162.35 35.86L169.14 34.89L176.02 34.19L182.97 33.77L190 33.62L197.03 33.77L203.98 34.19Z" id="d1Qfx8e1cl"></path><path d="M263.06 102.55L263.46 102.59L263.86 102.65L264.26 102.72L264.64 102.81L265.03 102.91L265.4 103.03L265.77 103.16L266.13 103.31L266.49 103.46L266.84 103.64L267.18 103.82L267.51 104.02L267.83 104.23L268.15 104.45L268.45 104.68L268.75 104.93L269.03 105.18L269.31 105.45L269.58 105.72L269.83 106.01L270.08 106.31L270.31 106.61L270.53 106.93L270.74 107.25L270.94 107.58L271.12 107.92L271.3 108.27L271.45 108.63L271.6 108.99L271.73 109.36L271.85 109.73L271.95 110.12L272.04 110.5L272.11 110.9L272.17 111.3L272.21 111.7L272.23 112.11L272.24 112.52L272.24 269.86L269.37 267.07L266.07 264.02L262.75 261.11L259.4 258.33L256.02 255.69L252.62 253.18L249.2 250.81L245.76 248.57L242.29 246.47L238.79 244.51L235.28 242.68L231.73 240.98L228.17 239.42L224.58 238L220.97 236.71L217.33 235.56L213.67 234.55L209.98 233.66L206.27 232.92L202.54 232.31L198.78 231.84L195 231.5L191.2 231.29L187.37 231.23L183.55 231.29L179.76 231.5L176 231.84L172.27 232.31L168.58 232.92L164.93 233.66L161.3 234.55L157.71 235.56L154.16 236.71L150.63 238L147.14 239.42L143.68 240.98L140.26 242.68L136.87 244.51L133.51 246.47L130.19 248.57L126.9 250.81L123.64 253.18L120.42 255.69L117.23 258.33L114.07 261.11L110.95 264.02L107.86 267.07L107.34 267.61L107.34 112.52L107.35 112.11L107.37 111.7L107.41 111.3L107.47 110.9L107.54 110.5L107.63 110.12L107.73 109.73L107.85 109.36L107.98 108.99L108.12 108.63L108.28 108.27L108.45 107.92L108.64 107.58L108.84 107.25L109.05 106.93L109.27 106.61L109.5 106.31L109.75 106.01L110 105.72L110.27 105.45L110.54 105.18L110.83 104.93L111.13 104.68L111.43 104.45L111.75 104.23L112.07 104.02L112.4 103.82L112.74 103.64L113.09 103.46L113.45 103.31L113.81 103.16L114.18 103.03L114.55 102.91L114.94 102.81L115.32 102.72L115.72 102.65L116.11 102.59L116.52 102.55L116.93 102.53L117.34 102.52L262.24 102.52L262.65 102.53L263.06 102.55Z" id="c3d2g4L54g"></path><path d="M157.16 193.5L222.84 193.5C222.84 216.13 222.84 230.28 222.84 235.93C222.84 244.32 218.8 252.19 211.98 257.08C207.59 260.23 213.07 256.29 210.63 258.04C198.3 266.88 181.7 266.88 169.37 258.04C166.93 256.29 172.41 260.23 168.02 257.08C161.2 252.19 157.16 244.32 157.16 235.93C157.16 230.28 157.16 216.13 157.16 193.5Z" id="abApOVjqy"></path><path d="M157.16 196.54L222.84 196.54L222.84 214.8C220.08 216.04 218.35 216.81 217.66 217.12C200.07 225.02 179.93 225.02 162.34 217.12C161.65 216.81 159.92 216.04 157.16 214.8L157.16 196.54Z" id="cxrMxHvZP"></path><path d="M268.66 123.45C268.66 173.02 233.41 213.27 190 213.27C146.59 213.27 111.34 173.02 111.34 123.45C111.34 73.87 114.13 33.62 190 33.62C265.87 33.62 268.66 73.87 268.66 123.45Z" id="a1I1XuW2cC"></path><path d="" id="aeE4W4JPp"></path><path d="M272.24 89.63L189.56 38.26L191.24 5.26C193.61 5.26 195.09 5.26 195.69 5.26C237.04 5.26 270.87 38.2 271.97 79.54C272.01 80.89 272.1 84.25 272.24 89.63Z" id="aegy5y9uz"></path><path d="M111.34 89.53L190 37.62L190 5.26C189.18 5.26 188.66 5.26 188.46 5.26C148.4 5.26 115.15 36.22 112.3 76.18C112.17 77.96 111.85 82.41 111.34 89.53Z" id="k5nzgyIXoQ"></path><path d="M191.14 5.26L185.5 5.26L185.5 39.92L191.14 39.92L191.14 5.26Z" id="e1sf4Rx2wD"></path><path d="M115.26 104.77C115.26 119.65 116.68 131.73 108.76 131.73C100.84 131.73 99.31 119.65 99.31 104.77C99.31 89.89 100.84 83.7 108.76 83.7C116.68 83.7 115.26 89.89 115.26 104.77Z" id="g3IsxtIfTP"></path><path d="M264.31 104.77C264.31 119.65 262.9 131.73 270.82 131.73C278.74 131.73 280.26 119.65 280.26 104.77C280.26 89.89 278.74 83.7 270.82 83.7C262.9 83.7 264.31 89.89 264.31 104.77Z" id="fhxv4jbnJ"></path><path d="M209.84 158.36C211.47 158.36 212.79 159.68 212.79 161.31C212.79 165.32 212.79 159.72 212.79 160.06C212.79 171.83 203.25 181.37 191.48 181.37C186.54 181.37 192.81 181.37 187.82 181.37C176.21 181.37 166.79 171.96 166.79 160.35C166.79 159.95 166.79 165.67 166.79 161.74C166.79 159.88 168.31 158.36 170.18 158.36C178.7 158.36 201.23 158.36 209.84 158.36Z" id="bVqlFqlc3"></path><path d="M170.03 158.36L209.55 158.36C209.08 161.03 208.8 162.7 208.68 163.37C208.22 166.04 205.9 167.99 203.18 167.99C197.02 167.99 183.58 167.99 177.5 167.99C174.49 167.99 171.87 165.93 171.16 163C171.01 162.38 170.63 160.83 170.03 158.36Z" id="fhcHIGIED"></path><path d="M204.58 175.12C204.58 178.18 197.52 181.11 190.21 181.37C182.9 181.64 175.58 178.68 175.58 175.62C175.58 174.28 178.24 173.2 183.57 172.37C185.49 172.08 187.46 172.6 188.98 173.81C189.15 173.94 189.56 174.26 190.21 174.79C190.56 174.41 190.78 174.17 190.87 174.08C192.58 172.23 195.13 171.42 197.6 171.93C202.25 172.9 204.58 173.97 204.58 175.12Z" id="bj29sRwlw"></path><path d="M663.92 323.69C677.03 320.8 691.48 325.45 707.26 337.65C665.26 331.23 650.81 326.58 663.92 323.69Z" id="h1hYdJle2a"></path><path d="M173.77 108.67C173.96 111.11 166.18 107.35 157.01 108.06C147.84 108.76 140.73 113.67 140.54 111.22C140.35 108.78 146.16 104.33 155.33 103.63C164.51 102.92 173.59 106.22 173.77 108.67Z" id="d4uOUfTxp"></path><path d="M206.23 107.66C206.04 110.1 213.82 106.34 222.99 107.05C232.16 107.75 239.27 112.66 239.46 110.21C239.65 107.77 233.84 103.32 224.67 102.62C215.49 101.91 206.41 105.21 206.23 107.66Z" id="b60LsrXxz"></path><path d="M189.73 140.61C196.12 140.71 200.51 137.76 202.9 131.73L177.1 131.73C179.12 137.55 183.33 140.51 189.73 140.61Z" id="aGeLeb8hd"></path><path d="M205.24 89.4C205.05 91.8 215.37 87.19 226.24 88.03C237.12 88.87 244.45 94.83 244.63 92.44C244.72 91.3 241.14 88.78 236.18 86.53C230.71 84.05 223.57 81.91 217.88 82.33C207.03 83.13 205.42 87.01 205.24 89.4Z" id="i3KEPuT9S5"></path><path d="M173.78 89.4C173.96 91.8 163.64 87.19 152.77 88.03C141.9 88.87 134.56 94.83 134.38 92.44C134.29 91.3 137.88 88.78 142.83 86.53C148.3 84.05 155.44 81.91 161.13 82.33C171.98 83.13 173.59 87.01 173.78 89.4Z" id="a2NfcY9HLN"></path></defs><g><g><g><use xlink:href="#d1Qfx8e1cl" opacity="1" fill="#711ed6" fill-opacity="1"></use></g><g><use xlink:href="#c3d2g4L54g" opacity="1" fill="#f5df09" fill-opacity="1"></use></g><g><use xlink:href="#abApOVjqy" opacity="1" fill="#fedbb5" fill-opacity="1"></use></g><g><use xlink:href="#cxrMxHvZP" opacity="1" fill="#e9c8a4" fill-opacity="1"></use></g><g><use xlink:href="#a1I1XuW2cC" opacity="1" fill="#fedbb5" fill-opacity="1"></use></g><g><g><use xlink:href="#aeE4W4JPp" opacity="1" fill-opacity="0" stroke="#000000" stroke-width="1" stroke-opacity="1"></use></g></g><g><use xlink:href="#aegy5y9uz" opacity="1" fill="#f5df09" fill-opacity="1"></use></g><g><use xlink:href="#k5nzgyIXoQ" opacity="1" fill="#f5df09" fill-opacity="1"></use></g><g><use xlink:href="#e1sf4Rx2wD" opacity="1" fill="#e1ce13" fill-opacity="1"></use></g><g><use xlink:href="#g3IsxtIfTP" opacity="1" fill="#fedbb5" fill-opacity="1"></use></g><g><use xlink:href="#fhxv4jbnJ" opacity="1" fill="#fedbb5" fill-opacity="1"></use></g><g><use xlink:href="#bVqlFqlc3" opacity="1" fill="#652727" fill-opacity="1"></use></g><g><use xlink:href="#fhcHIGIED" opacity="1" fill="#ffffff" fill-opacity="1"></use></g><g><use xlink:href="#bj29sRwlw" opacity="1" fill="#da1355" fill-opacity="1"></use></g><g><use xlink:href="#h1hYdJle2a" opacity="1" fill="#e9d517" fill-opacity="1"></use></g><g><use xlink:href="#d4uOUfTxp" opacity="1" fill="#3e250a" fill-opacity="1"></use></g><g><use xlink:href="#b60LsrXxz" opacity="1" fill="#3e250a" fill-opacity="1"></use></g><g><use xlink:href="#aGeLeb8hd" opacity="1" fill="#e0c09e" fill-opacity="1"></use></g><g><use xlink:href="#i3KEPuT9S5" opacity="1" fill="#e9d517" fill-opacity="1"></use></g><g><use xlink:href="#a2NfcY9HLN" opacity="1" fill="#e9d517" fill-opacity="1"></use></g></g></g></svg>