<?xml version="1.0" encoding="UTF-8" standalone="no"?>
<!DOCTYPE svg PUBLIC "-//W3C//DTD SVG 1.1//EN" "http://www.w3.org/Graphics/SVG/1.1/DTD/svg11.dtd">
<svg version="1.1" xmlns="http://www.w3.org/2000/svg" xmlns:xlink="http://www.w3.org/1999/xlink" preserveAspectRatio="xMidYMid meet" viewBox="367.3918918918921 40.59090909090911 194.63191879084366 227.90909090909082" width="177.63" height="210.91"><defs><path d="M393.6 220L423.93 220C445.58 220 459.11 220 464.53 220C466.38 220 467.89 221.5 467.89 223.36C467.89 230.69 467.89 246.07 467.89 252.59C467.89 256.68 464.57 260 460.47 260C451.56 260 429.26 260 393.6 260L393.6 220Z" id="htcpvWn0w"></path><path d="M516.41 86.99C520.06 86.99 523.02 89.95 523.02 93.6C523.02 102.06 523.02 120.67 523.02 129.09C523.02 132.84 519.98 135.88 516.23 135.88C503.88 135.88 473.03 135.88 460.53 135.88C457.19 135.88 454.48 133.17 454.48 129.83C454.48 121.26 454.48 102.47 454.48 94.12C454.48 90.18 457.67 86.99 461.6 86.99C473.88 86.99 504.02 86.99 516.41 86.99Z" id="d80nwp7jqy"></path><path d="M550.13 240.68C557.31 247.71 552.33 259.91 542.28 259.91C530.57 259.91 501.31 259.91 454.48 259.91C454.48 213.8 454.48 184.98 454.48 173.45C454.48 163.6 466.34 158.62 473.38 165.51C492.66 184.39 531 221.94 550.13 240.68Z" id="a56DxET4Ja"></path><path d="M402.41 49.09C409.86 49.09 415.89 55.13 415.89 62.57C415.89 88.89 415.89 154.7 415.89 260C401.75 260 392.91 260 389.37 260C381.93 260 375.89 253.96 375.89 246.52C375.89 207.03 375.89 103.36 375.89 64.2C375.89 55.86 382.66 49.09 391 49.09C395.98 49.09 397.11 49.09 402.41 49.09Z" id="f20uyLaggX"></path></defs><g><g><use xlink:href="#htcpvWn0w" opacity="1" fill="#711ed6" fill-opacity="1"></use></g><g><use xlink:href="#d80nwp7jqy" opacity="1" fill="#711ed6" fill-opacity="1"></use></g><g><use xlink:href="#a56DxET4Ja" opacity="1" fill="#711ed6" fill-opacity="1"></use></g><g><use xlink:href="#f20uyLaggX" opacity="1" fill="#711ed6" fill-opacity="1"></use></g></g></svg>