<?xml version="1.0" encoding="UTF-8" standalone="no"?>
<!DOCTYPE svg PUBLIC "-//W3C//DTD SVG 1.1//EN" "http://www.w3.org/Graphics/SVG/1.1/DTD/svg11.dtd">
<svg version="1.1" xmlns="http://www.w3.org/2000/svg" xmlns:xlink="http://www.w3.org/1999/xlink" preserveAspectRatio="xMidYMid meet" viewBox="0 0 380 380" width="380" height="380"><defs><path d="M189.82 373.45L190.28 373.45L190 373.45L189.82 373.45ZM203.98 32.91L210.86 33.61L217.65 34.58L224.35 35.81L230.97 37.3L237.48 39.05L243.88 41.04L250.18 43.28L256.36 45.75L262.42 48.46L268.35 51.39L274.15 54.54L279.81 57.91L285.33 61.49L290.7 65.27L295.92 69.25L300.97 73.42L305.86 77.78L310.58 82.32L315.12 87.04L319.48 91.93L323.65 96.98L327.63 102.2L331.41 107.57L334.99 113.08L338.35 118.75L341.51 124.55L344.44 130.48L347.14 136.54L349.62 142.72L351.85 149.01L353.85 155.42L355.6 161.93L357.09 168.54L358.32 175.25L359.29 182.04L359.99 188.92L360.41 195.87L360.56 202.9L360.41 209.92L359.99 216.88L359.29 223.75L358.32 230.55L357.09 237.25L355.6 243.86L353.85 250.38L351.85 256.78L349.62 263.08L347.14 269.26L344.44 275.32L341.51 281.25L338.35 287.05L334.99 292.71L331.41 298.23L327.63 303.6L323.65 308.81L319.48 313.87L315.12 318.76L312.59 321.39L310.42 317.77L307.43 312.96L304.41 308.28L301.37 303.74L298.31 299.34L295.22 295.07L292.11 290.93L288.98 286.94L285.82 283.07L282.64 279.35L279.43 275.76L276.2 272.3L272.94 268.98L269.67 265.8L266.36 262.75L263.04 259.83L259.69 257.05L256.31 254.41L252.92 251.91L249.49 249.53L246.05 247.3L242.58 245.2L239.09 243.23L235.57 241.4L232.03 239.71L228.46 238.15L224.87 236.73L221.26 235.44L217.62 234.29L213.96 233.27L210.28 232.39L206.57 231.65L202.83 231.04L199.08 230.56L195.3 230.22L191.49 230.02L187.66 229.95L183.84 230.02L180.05 230.22L176.29 230.56L172.57 231.04L168.88 231.65L165.22 232.39L161.6 233.27L158.01 234.29L154.45 235.44L150.93 236.73L147.44 238.15L143.98 239.71L140.55 241.4L137.16 243.23L133.81 245.2L130.48 247.3L127.19 249.53L123.94 251.91L120.71 254.41L117.52 257.05L114.37 259.83L111.24 262.75L108.15 265.8L105.09 268.98L102.07 272.3L99.08 275.76L96.12 279.35L93.2 283.07L90.31 286.94L87.45 290.93L84.63 295.07L81.84 299.34L79.08 303.74L76.36 308.28L73.67 312.96L71.01 317.77L68.5 322.51L64.88 318.76L60.52 313.87L56.35 308.81L52.37 303.6L48.59 298.23L45.01 292.71L41.65 287.05L38.49 281.25L35.56 275.32L32.86 269.26L30.38 263.08L28.15 256.78L26.15 250.38L24.4 243.86L22.91 237.25L21.68 230.55L20.71 223.75L20.01 216.88L19.59 209.92L19.44 202.9L19.59 195.87L20.01 188.92L20.71 182.04L21.68 175.25L22.91 168.54L24.4 161.93L26.15 155.42L28.15 149.01L30.38 142.72L32.86 136.54L35.56 130.48L38.49 124.55L41.65 118.75L45.01 113.08L48.59 107.57L52.37 102.2L56.35 96.98L60.52 91.93L64.88 87.04L69.42 82.32L74.14 77.78L79.03 73.42L84.08 69.25L89.3 65.27L94.67 61.49L100.19 57.91L105.85 54.54L111.65 51.39L117.58 48.46L123.64 45.75L129.82 43.28L136.12 41.04L142.52 39.05L149.03 37.3L155.65 35.81L162.35 34.58L169.14 33.61L176.02 32.91L182.97 32.48L190 32.34L197.03 32.48L203.98 32.91Z" id="d3vnDMj6Ya"></path><path d="M312.7 321.46C286.89 354.97 246.1 372 190.34 372.56C134.57 373.13 93.56 356.09 67.3 321.46C95.6 259.87 135.35 229.07 186.55 229.07C237.76 229.07 279.81 259.87 312.7 321.46Z" id="fbkKEHjeG"></path><path d="M268.72 116.37L268.72 123.62L268.72 130.74L268.72 137.71L268.72 144.55L268.72 151.26L268.72 157.82L268.72 164.25L268.72 170.54L268.72 176.69L268.72 182.71L268.72 188.59L268.72 194.33L268.72 199.93L268.72 205.4L268.72 210.73L268.72 215.92L268.72 220.98L268.72 225.9L268.72 230.68L268.72 235.32L268.72 239.83L268.72 244.19L268.72 248.43L268.72 252.52L268.72 256.48L268.72 260.3L268.72 263.98L268.72 267.53L268.72 270.94L268.72 274.21L268.72 277.34L268.72 280.34L268.72 283.2L268.72 285.92L268.72 288.5L268.72 290.95L268.72 293.26L268.72 295.43L268.72 297.47L268.72 299.37L268.72 299.49L268.71 299.61L268.7 299.72L268.68 299.84L268.66 299.95L268.64 300.07L268.61 300.18L268.57 300.29L268.54 300.39L268.49 300.5L268.45 300.6L268.4 300.7L268.34 300.8L268.29 300.9L268.23 300.99L268.16 301.08L268.09 301.17L268.02 301.26L267.95 301.34L267.87 301.42L267.79 301.5L267.71 301.57L267.62 301.64L267.53 301.71L267.44 301.78L267.35 301.84L267.25 301.89L267.15 301.95L267.05 302L266.95 302.04L266.84 302.09L266.74 302.12L266.63 302.16L266.52 302.19L266.4 302.21L266.29 302.23L266.17 302.25L266.06 302.26L265.94 302.27L265.82 302.27L265.67 302.27L265.55 302.27L265.44 302.27L265.34 302.27L265.26 302.27L265.18 302.27L265.12 302.27L265.06 302.27L265.01 302.27L264.96 302.27L264.91 302.27L264.86 302.27L264.8 302.27L264.75 302.27L264.68 302.27L264.61 302.27L264.53 302.27L264.44 302.27L264.33 302.27L264.21 302.27L264.06 302.27L263.9 302.27L263.72 302.27L263.52 302.27L263.28 302.27L263.03 302.27L262.74 302.27L262.42 302.27L262.07 302.27L261.69 302.27L261.26 302.27L260.8 302.27L260.3 302.27L259.76 302.27L259.17 302.27L258.54 302.27L257.86 302.27L257.13 302.27L256.35 302.27L255.51 302.27L255.26 302.27L254.99 302.27L254.71 302.27L254.42 302.27L254.11 302.27L253.8 302.27L253.47 302.27L253.14 302.27L252.79 302.27L252.43 302.27L252.06 302.27L251.67 302.27L251.28 302.27L250.87 302.27L250.45 302.27L250.02 302.27L249.58 302.27L249.13 302.27L248.66 302.27L248.19 302.27L247.7 302.27L247.2 302.27L246.69 302.27L246.17 302.27L245.64 302.27L245.09 302.27L244.53 302.27L243.97 302.27L243.39 302.27L242.8 302.27L242.19 302.27L241.58 302.27L240.95 302.27L240.32 302.27L239.67 302.27L239.01 302.27L238.34 302.27L237.65 302.27L236.96 302.27L236.25 302.27L235.81 302.27L235.38 302.27L234.96 302.27L234.55 302.27L234.14 302.27L233.75 302.27L233.36 302.27L232.98 302.27L232.6 302.27L232.24 302.27L231.89 302.27L231.54 302.27L231.2 302.27L230.87 302.27L230.55 302.27L230.23 302.27L229.93 302.27L229.63 302.27L229.34 302.27L229.06 302.27L228.79 302.27L228.52 302.27L228.27 302.27L228.02 302.27L227.78 302.27L227.55 302.27L227.33 302.27L227.11 302.27L226.91 302.27L226.71 302.27L226.52 302.27L226.34 302.27L226.17 302.27L226 302.27L225.85 302.27L225.7 302.27L225.56 302.27L225.43 302.27L225.3 302.27L225.19 302.27L225.09 302.27L224.99 302.26L224.89 302.25L224.79 302.24L224.69 302.22L224.6 302.2L224.5 302.18L224.41 302.15L224.32 302.11L224.23 302.08L224.14 302.04L224.06 302L223.97 301.95L223.89 301.9L223.81 301.85L223.74 301.8L223.66 301.74L223.59 301.68L223.52 301.62L223.45 301.55L223.38 301.48L223.32 301.41L223.26 301.34L223.2 301.26L223.15 301.19L223.1 301.11L223.05 301.02L223 300.94L222.96 300.86L222.92 300.77L222.88 300.68L222.85 300.59L222.82 300.5L222.8 300.4L222.78 300.31L222.76 300.21L222.75 300.11L222.74 300.01L222.73 299.91L222.73 299.81L222.73 297.91L222.73 295.87L222.73 293.69L222.73 291.37L222.73 288.92L222.73 286.33L222.73 283.6L222.73 280.73L222.73 277.73L222.73 274.59L222.73 271.31L222.73 267.89L222.73 264.34L222.73 260.65L222.73 256.82L222.73 252.85L222.73 248.74L222.73 244.5L222.73 240.12L222.73 235.61L222.73 230.95L222.73 226.16L222.73 221.23L222.73 216.16L222.73 210.96L222.73 205.61L222.73 200.13L222.73 194.52L222.73 188.76L222.73 182.87L222.73 176.84L222.73 170.67L222.73 164.36L222.73 157.92L222.73 151.34L222.73 144.62L222.73 137.77L222.73 130.77L222.73 123.64L222.73 116.37L222.73 116.37L268.72 116.37Z" id="a3oZ8NOsC"></path><path d="M157.16 116.37L157.16 123.62L157.16 130.73L157.16 137.7L157.16 144.53L157.16 151.23L157.16 157.79L157.16 164.22L157.16 170.5L157.16 176.65L157.16 182.66L157.16 188.54L157.16 194.27L157.16 199.88L157.16 205.34L157.16 210.66L157.16 215.85L157.16 220.91L157.16 225.82L157.16 230.6L157.16 235.24L157.16 239.74L157.16 244.11L157.16 248.34L157.16 252.43L157.16 256.38L157.16 260.2L157.16 263.88L157.16 267.42L157.16 270.83L157.16 274.1L157.16 277.23L157.16 280.22L157.16 283.08L157.16 285.8L157.16 288.38L157.16 290.83L157.16 293.14L157.16 295.31L157.16 297.34L157.16 299.24L157.15 299.37L157.15 299.49L157.13 299.61L157.12 299.73L157.1 299.85L157.07 299.97L157.04 300.09L157 300.2L156.96 300.31L156.92 300.42L156.87 300.53L156.82 300.63L156.76 300.74L156.7 300.84L156.64 300.94L156.57 301.03L156.5 301.12L156.43 301.21L156.35 301.3L156.27 301.38L156.19 301.47L156.1 301.54L156.01 301.62L155.92 301.69L155.82 301.75L155.72 301.82L155.62 301.88L155.52 301.93L155.41 301.99L155.31 302.03L155.2 302.08L155.08 302.12L154.97 302.15L154.85 302.18L154.74 302.21L154.62 302.23L154.5 302.25L154.38 302.26L154.25 302.27L154.13 302.27L153.98 302.27L153.84 302.27L153.73 302.27L153.63 302.27L153.54 302.27L153.46 302.27L153.4 302.27L153.33 302.27L153.28 302.27L153.23 302.27L153.18 302.27L153.12 302.27L153.07 302.27L153.01 302.27L152.94 302.27L152.87 302.27L152.78 302.27L152.69 302.27L152.57 302.27L152.44 302.27L152.3 302.27L152.13 302.27L151.94 302.27L151.72 302.27L151.48 302.27L151.21 302.27L150.91 302.27L150.58 302.27L150.22 302.27L149.81 302.27L149.37 302.27L148.89 302.27L148.37 302.27L147.81 302.27L147.19 302.27L146.53 302.27L145.82 302.27L145.06 302.27L144.25 302.27L143.37 302.27L143.11 302.27L142.83 302.27L142.53 302.27L142.23 302.27L141.91 302.27L141.59 302.27L141.25 302.27L140.89 302.27L140.53 302.27L140.15 302.27L139.77 302.27L139.37 302.27L138.95 302.27L138.53 302.27L138.09 302.27L137.64 302.27L137.18 302.27L136.71 302.27L136.23 302.27L135.73 302.27L135.22 302.27L134.7 302.27L134.17 302.27L133.62 302.27L133.07 302.27L132.5 302.27L131.92 302.27L131.32 302.27L130.72 302.27L130.1 302.27L129.47 302.27L128.83 302.27L128.18 302.27L127.52 302.27L126.84 302.27L126.15 302.27L125.45 302.27L124.74 302.27L124.01 302.27L123.27 302.27L122.82 302.27L122.37 302.27L121.93 302.27L121.5 302.27L121.07 302.27L120.66 302.27L120.25 302.27L119.86 302.27L119.47 302.27L119.09 302.27L118.72 302.27L118.36 302.27L118 302.27L117.66 302.27L117.32 302.27L116.99 302.27L116.68 302.27L116.37 302.27L116.06 302.27L115.77 302.27L115.49 302.27L115.21 302.27L114.94 302.27L114.69 302.27L114.44 302.27L114.2 302.27L113.96 302.27L113.74 302.27L113.52 302.27L113.32 302.27L113.12 302.27L112.93 302.27L112.75 302.27L112.58 302.27L112.42 302.27L112.26 302.27L112.12 302.27L111.98 302.27L111.85 302.27L111.73 302.27L111.63 302.27L111.52 302.26L111.42 302.25L111.31 302.24L111.21 302.22L111.11 302.2L111.02 302.17L110.92 302.14L110.82 302.11L110.73 302.07L110.64 302.03L110.55 301.99L110.46 301.94L110.38 301.89L110.29 301.83L110.21 301.78L110.14 301.72L110.06 301.65L109.99 301.59L109.91 301.52L109.85 301.45L109.78 301.37L109.72 301.3L109.66 301.22L109.6 301.14L109.55 301.06L109.5 300.97L109.45 300.88L109.4 300.79L109.36 300.7L109.33 300.61L109.29 300.51L109.26 300.42L109.24 300.32L109.21 300.22L109.2 300.12L109.18 300.02L109.17 299.91L109.16 299.81L109.16 299.7L109.16 297.8L109.16 295.76L109.16 293.58L109.16 291.27L109.16 288.82L109.16 286.23L109.16 283.5L109.16 280.64L109.16 277.63L109.16 274.49L109.16 271.22L109.16 267.8L109.16 264.25L109.16 260.56L109.16 256.73L109.16 252.77L109.16 248.67L109.16 244.43L109.16 240.05L109.16 235.54L109.16 230.88L109.16 226.1L109.16 221.17L109.16 216.1L109.16 210.9L109.16 205.56L109.16 200.09L109.16 194.47L109.16 188.72L109.16 182.83L109.16 176.8L109.16 170.64L109.16 164.34L109.16 157.9L109.16 151.32L109.16 144.6L109.16 137.75L109.16 130.76L109.16 123.64L109.16 116.37L109.16 116.37L157.16 116.37Z" id="c6xCy7E7y"></path><path d="M146.31 190L149.31 190L149.31 302.27L146.31 302.27L146.31 190Z" id="c2p70Nk6Yb"></path><path d="M157.16 193.5L222.84 193.5C222.84 216.13 222.84 230.28 222.84 235.93C222.84 244.32 218.8 252.19 211.98 257.08C207.59 260.23 213.07 256.29 210.63 258.04C198.3 266.88 181.7 266.88 169.37 258.04C166.93 256.29 172.41 260.23 168.02 257.08C161.2 252.19 157.16 244.32 157.16 235.93C157.16 230.28 157.16 216.13 157.16 193.5Z" id="ac8SZK9qvR"></path><path d="M122.03 167.4L125.03 167.4L125.03 302.27L122.03 302.27L122.03 167.4Z" id="a2HCccCwN3"></path><path d="M157.16 196.54L222.84 196.54L222.84 214.8C220.08 216.04 218.35 216.81 217.66 217.12C200.07 225.02 179.93 225.02 162.34 217.12C161.65 216.81 159.92 216.04 157.16 214.8L157.16 196.54Z" id="a1kUVEmGwU"></path><path d="M130.16 176.51L133.16 176.51L133.16 302.27L130.16 302.27L130.16 176.51Z" id="aFJisdiQj"></path><path d="M230.49 171.65L233.49 171.65L233.49 302.27L230.49 302.27L230.49 171.65Z" id="a3huZNECq6"></path><path d="M247.34 161.96L250.34 161.96L250.34 302.27L247.34 302.27L247.34 161.96Z" id="dZEKmtuOJ"></path><path d="M199.4 30.85L204.43 31.22L209.2 31.73L213.72 32.38L218 33.16L222.05 34.08L225.87 35.13L229.47 36.31L232.86 37.62L236.03 39.04L239.01 40.58L241.79 42.24L244.38 44.02L246.79 45.9L249.02 47.89L251.09 49.99L252.99 52.19L254.74 54.48L256.34 56.87L257.8 59.36L259.12 61.93L260.31 64.59L261.38 67.34L262.33 70.17L263.18 73.07L263.92 76.06L264.57 79.11L265.12 82.23L265.31 83.46L265.92 83.11L266.63 82.83L267.44 82.63L268.36 82.52L269.38 82.48L270.42 82.52L271.38 82.63L272.27 82.83L273.09 83.11L273.85 83.47L274.53 83.91L275.15 84.44L275.72 85.06L276.22 85.76L276.67 86.55L277.07 87.44L277.42 88.41L277.73 89.48L277.99 90.65L278.2 91.91L278.39 93.27L278.53 94.73L278.64 96.29L278.73 97.95L278.78 99.71L278.82 101.58L278.83 103.56L278.82 105.57L278.78 107.54L278.73 109.46L278.64 111.34L278.53 113.16L278.39 114.92L278.2 116.61L277.99 118.23L277.73 119.78L277.42 121.24L277.07 122.62L276.67 123.9L276.22 125.09L275.72 126.17L275.15 127.15L274.53 128.01L273.85 128.75L273.09 129.37L272.27 129.87L271.38 130.22L270.42 130.44L269.38 130.52L268.36 130.44L267.44 130.22L266.63 129.87L266.45 129.74L266.4 130.05L266.12 131.75L265.81 133.46L265.45 135.19L265.06 136.93L264.64 138.69L264.19 140.45L263.71 142.21L263.2 143.98L262.67 145.75L262.11 147.52L261.52 149.28L260.92 151.04L260.29 152.79L259.65 154.52L258.99 156.25L258.31 157.95L257.63 159.64L256.92 161.31L256.21 162.95L255.49 164.57L254.76 166.16L254.03 167.72L253.29 169.25L252.54 170.74L251.8 172.19L251.06 173.61L250.32 174.98L249.58 176.3L248.84 177.58L248.12 178.81L247.4 179.99L246.69 181.11L245.99 182.18L245.31 183.18L244.61 184.16L243.86 185.14L243.06 186.12L242.22 187.1L241.33 188.08L240.4 189.05L239.42 190.02L238.4 190.98L237.34 191.94L236.23 192.89L235.09 193.82L233.91 194.75L232.69 195.66L231.43 196.56L230.14 197.44L228.81 198.31L227.44 199.15L226.05 199.98L224.62 200.78L223.15 201.56L221.66 202.32L220.13 203.05L218.58 203.76L217 204.43L215.39 205.08L213.75 205.69L212.09 206.27L210.41 206.82L208.7 207.33L206.96 207.8L205.21 208.24L203.43 208.63L201.63 208.99L199.82 209.3L197.98 209.57L196.13 209.79L194.26 209.96L192.38 210.09L190.48 210.17L188.56 210.19L186.86 210.16L185.15 210.08L183.43 209.93L181.71 209.73L179.98 209.48L178.24 209.18L176.51 208.83L174.78 208.43L173.05 207.99L171.33 207.51L169.62 206.99L167.92 206.44L166.23 205.85L164.55 205.22L162.89 204.57L161.25 203.88L159.63 203.17L158.03 202.44L156.46 201.68L154.92 200.91L153.4 200.12L151.91 199.31L150.46 198.49L149.05 197.65L147.67 196.81L146.33 195.96L145.03 195.11L143.78 194.25L142.57 193.39L141.41 192.54L140.31 191.69L139.25 190.84L138.25 190.01L137.3 189.18L136.42 188.37L135.59 187.57L134.83 186.78L134.13 186.02L133.5 185.28L132.94 184.56L132.4 183.81L131.82 182.99L131.22 182.09L130.59 181.12L129.93 180.07L129.26 178.96L128.56 177.79L127.85 176.55L127.12 175.26L126.38 173.9L125.63 172.5L124.87 171.04L124.1 169.53L123.34 167.98L122.57 166.39L121.8 164.75L121.03 163.08L120.28 161.37L119.53 159.63L118.79 157.86L118.06 156.06L117.35 154.24L116.66 152.4L115.99 150.53L115.34 148.66L114.72 146.76L114.12 144.86L113.55 142.95L113.02 141.04L112.52 139.12L112.05 137.2L111.63 135.28L111.24 133.37L110.96 131.8L110.78 131.98L110.07 132.47L109.26 132.83L108.34 133.05L107.32 133.12L106.28 133.05L105.32 132.83L104.43 132.47L103.61 131.98L102.85 131.36L102.17 130.61L101.55 129.75L100.98 128.77L100.48 127.69L100.03 126.5L99.63 125.22L99.28 123.84L98.97 122.38L98.71 120.84L98.5 119.21L98.31 117.52L98.17 115.76L98.06 113.94L97.97 112.07L97.92 110.14L97.88 108.17L97.87 106.16L97.88 104.18L97.92 102.31L97.97 100.55L98.06 98.89L98.17 97.33L98.31 95.87L98.5 94.51L98.71 93.25L98.97 92.09L99.28 91.02L99.63 90.04L100.03 89.16L100.48 88.36L100.98 87.66L101.55 87.04L102.17 86.51L102.85 86.07L103.61 85.71L104.43 85.43L105.32 85.24L106.28 85.12L107.32 85.08L108.34 85.12L109.26 85.24L110.07 85.43L110.78 85.71L111.4 86.07L111.44 86.11L111.53 85.43L112 82.23L112.56 79.11L113.2 76.06L113.94 73.07L114.79 70.17L115.74 67.34L116.81 64.59L118 61.93L119.33 59.36L120.78 56.87L122.38 54.48L124.13 52.19L126.03 49.99L128.1 47.89L130.33 45.9L132.74 44.02L135.33 42.24L138.11 40.58L141.09 39.04L144.26 37.62L147.65 36.31L151.25 35.13L155.07 34.08L159.12 33.16L163.4 32.38L167.92 31.73L172.69 31.22L177.72 30.85L183.01 30.63L188.56 30.55L194.11 30.63L199.4 30.85Z" id="h22e8TtSWv"></path><path d="" id="l3eC3lFH3Q"></path><path d="M663.92 323.69C677.03 320.8 691.48 325.45 707.26 337.65C665.26 331.23 650.81 326.58 663.92 323.69Z" id="c3dynYJW3r"></path><path d="M209.84 158.36C211.47 158.36 212.79 159.68 212.79 161.31C212.79 165.32 212.79 159.72 212.79 160.06C212.79 171.83 203.25 181.37 191.48 181.37C186.54 181.37 192.81 181.37 187.82 181.37C176.21 181.37 166.79 171.96 166.79 160.35C166.79 159.95 166.79 165.67 166.79 161.74C166.79 159.88 168.31 158.36 170.18 158.36C178.7 158.36 201.23 158.36 209.84 158.36Z" id="aD5H7ze7j"></path><path d="M170.03 158.36L209.55 158.36C209.08 160.37 208.79 161.63 208.67 162.14C208.21 164.14 206.43 165.55 204.37 165.55C197.97 165.55 182.54 165.55 176.2 165.55C173.91 165.55 171.89 164.08 171.18 161.9C171.03 161.43 170.65 160.25 170.03 158.36Z" id="cjXTJVqm"></path><path d="M205.15 175.1C204.09 179.07 197.28 181.23 189.78 181.36C182.28 181.48 175.15 178.67 175.15 175.6C175.15 174.26 177.81 173.18 183.13 172.36C185.06 172.06 187.02 172.58 188.55 173.79C188.71 173.92 189.12 174.25 189.78 174.77C189.78 174.77 189.78 174.77 189.78 174.77C191.92 172.46 195.05 171.33 198.17 171.73C203.25 172.39 205.57 173.51 205.15 175.1Z" id="d7kLS0Z1qC"></path><path d="M172.65 98.15C172.84 100.59 165.06 96.83 155.89 97.54C146.72 98.24 139.61 103.15 139.42 100.71C139.23 98.26 145.04 93.81 154.21 93.11C163.38 92.4 172.47 95.71 172.65 98.15Z" id="bilmiS4UP"></path><path d="M204.15 98.15C203.96 100.59 211.74 96.83 220.91 97.54C230.09 98.24 237.2 103.15 237.39 100.71C237.58 98.26 231.76 93.81 222.59 93.11C213.42 92.4 204.34 95.71 204.15 98.15Z" id="clOOJgW8y"></path><path d="M193.78 27.13L195.59 27.29L197.38 27.46L199.15 27.64L200.89 27.84L202.62 28.05L204.32 28.27L205.99 28.51L207.65 28.76L209.28 29.02L210.88 29.3L212.47 29.59L214.03 29.89L215.57 30.21L217.09 30.54L218.58 30.89L220.05 31.24L221.5 31.61L222.93 32L224.33 32.4L225.71 32.81L227.06 33.23L228.4 33.67L229.71 34.12L231 34.58L232.26 35.06L233.51 35.55L234.73 36.06L235.92 36.58L237.1 37.11L238.25 37.65L239.38 38.21L240.48 38.78L241.57 39.37L242.63 39.97L243.66 40.58L244.68 41.2L245.67 41.84L246.64 42.49L247.58 43.17L248.51 43.87L249.4 44.61L250.28 45.37L251.13 46.17L251.96 46.99L252.76 47.84L253.54 48.73L254.29 49.65L255.03 50.59L255.73 51.57L256.42 52.57L257.08 53.61L257.71 54.68L258.33 55.77L258.92 56.9L259.48 58.06L260.02 59.24L260.54 60.46L261.04 61.71L261.51 62.99L261.95 64.3L262.38 65.63L262.77 67L263.15 68.4L263.5 69.83L263.83 71.29L264.13 72.78L264.41 74.3L264.67 75.85L264.9 77.43L265.11 79.04L265.3 80.68L265.46 82.35L265.55 83.46L265.67 84.14L265.96 85.9L266.24 87.74L266.5 89.66L266.75 91.66L266.98 93.74L267.2 95.9L267.41 98.15L267.59 100.47L267.77 102.87L267.93 105.36L268.07 107.92L268.2 110.57L268.32 113.3L268.42 116.1L268.51 118.99L268.58 121.96L268.64 125.01L268.68 128.14L268.71 131.35L268.72 134.64L268.72 138.01L268.7 141.46L268.67 144.99L268.63 148.6L268.57 152.3L268.49 156.07L268.41 159.92L268.3 163.86L268.18 167.87L268.05 171.97L267.9 176.15L267.74 180.4L267.56 184.74L267.37 189.16L267.17 193.66L266.94 198.24L266.71 202.9L253.94 202.9L253.94 87.62L182.06 55.3L190.08 26.86L191.94 26.99L193.78 27.13Z" id="g5xq7SCPpC"></path><path d="M194.08 27.45L195.53 27.76L196.92 28.09L198.25 28.42L199.51 28.77L200.71 29.12L201.85 29.49L202.91 29.87L203.92 30.26L204.86 30.66L205.74 31.08L206.55 31.5L207.3 31.93L207.98 32.38L208.6 32.84L209.15 33.3L209.64 33.78L210.07 34.27L210.43 34.77L210.73 35.28L210.96 35.81L211.13 36.34L211.23 36.89L211.27 37.44L211.25 38.01L211.16 38.59L211.01 39.18L210.79 39.78L210.51 40.39L210.16 41.02L209.75 41.65L209.27 42.29L208.74 42.95L208.13 43.62L207.46 44.3L206.73 44.99L205.94 45.69L205.07 46.4L204.15 47.12L203.16 47.86L202.09 48.61L200.96 49.37L199.76 50.16L198.49 50.95L197.14 51.77L195.73 52.6L194.25 53.44L192.7 54.3L191.07 55.17L189.38 56.06L187.62 56.97L185.79 57.89L183.89 58.83L181.91 59.78L179.87 60.75L177.76 61.73L175.58 62.73L173.32 63.74L171 64.77L168.61 65.81L166.15 66.87L163.61 67.95L161.01 69.04L158.34 70.14L155.6 71.26L152.79 72.4L149.9 73.55L146.95 74.72L143.93 75.9L140.84 77.1L137.68 78.32L134.44 79.55L131.14 80.79L127.77 82.05L124.33 83.33L122.62 83.95L122.62 196.54L109.86 196.54L109.62 191.88L109.4 187.3L109.2 182.8L109 178.38L108.83 174.04L108.66 169.79L108.52 165.61L108.38 161.51L108.27 157.5L108.16 153.56L108.07 149.71L108 145.94L107.94 142.24L107.89 138.63L107.86 135.1L107.85 131.65L107.84 128.28L107.86 124.99L107.89 121.78L107.93 118.65L107.99 115.6L108.06 112.63L108.14 109.74L108.25 106.94L108.36 104.21L108.49 101.56L108.64 99L108.8 96.51L108.97 94.11L109.16 91.78L109.37 89.54L109.58 87.38L109.82 85.3L109.99 83.93L110.06 82.6L110.18 81.15L110.31 79.73L110.47 78.32L110.65 76.94L110.86 75.58L111.09 74.23L111.34 72.91L111.62 71.6L111.92 70.32L112.25 69.06L112.6 67.81L112.97 66.59L113.37 65.39L113.79 64.21L114.24 63.04L114.71 61.9L115.2 60.78L115.72 59.68L116.26 58.6L116.82 57.53L117.41 56.49L118.02 55.47L118.66 54.47L119.31 53.49L120 52.53L120.71 51.59L121.44 50.67L122.19 49.77L122.97 48.89L123.77 48.03L124.6 47.19L125.45 46.37L126.32 45.57L127.22 44.79L128.14 44.04L129.09 43.3L130.06 42.58L131.06 41.87L132.09 41.18L133.15 40.51L134.24 39.85L135.36 39.21L136.51 38.59L137.69 37.98L138.9 37.39L140.14 36.81L141.4 36.25L142.7 35.7L144.03 35.17L145.38 34.66L146.77 34.16L148.18 33.68L149.63 33.21L151.1 32.76L152.6 32.32L154.13 31.91L155.7 31.5L157.29 31.12L158.91 30.74L160.56 30.39L162.24 30.05L163.95 29.73L165.69 29.42L167.46 29.13L169.25 28.85L171.08 28.59L172.94 28.34L174.82 28.12L176.74 27.9L178.68 27.71L180.66 27.53L182.66 27.36L184.7 27.21L186.76 27.08L188.85 26.96L190.98 26.86L192.56 27.15L194.08 27.45Z" id="a5nk7LCGrt"></path><path d="M184.75 26.86L190 26.86L190 58.2L184.75 58.2L184.75 26.86Z" id="a4932hzT56"></path><path d="M150.63 109.23L152.05 109.86L153.14 110.19L153.7 110.48L153.58 111.01L152.77 111.78L151.27 112.79L151.25 112.77L150.86 113.64L149.86 115.15L143.49 111.59L145.92 111.92L147.91 112.1L149.47 112.14L150.6 112.03L150.66 112.03L146.73 107.08L148.85 108.31L150.63 109.23Z" id="c1mKJBAMUt"></path><path d="M172.66 121.93C172.66 129.2 166.75 135.1 159.48 135.1C152.21 135.1 146.31 129.2 146.31 121.93C146.31 114.66 152.21 108.75 159.48 108.75C166.75 108.75 172.66 114.66 172.66 121.93Z" id="b4ihrf0tz2"></path><path d="M166.61 122.49C166.61 125.87 163.73 128.61 160.18 128.61C156.62 128.61 153.74 125.87 153.74 122.49C153.74 119.11 156.62 116.37 160.18 116.37C163.73 116.37 166.61 119.11 166.61 122.49Z" id="blxIpIE7j"></path><path d="M164.51 122.49C164.51 124.88 162.57 126.83 160.18 126.83C157.79 126.83 155.84 124.88 155.84 122.49C155.84 120.1 157.79 118.16 160.18 118.16C162.57 118.16 164.51 120.1 164.51 122.49Z" id="fChrlXubW"></path><path d="M190.71 117.16C186.34 127.17 183.6 133.42 182.51 135.92C182.15 136.74 182 137.63 182.08 138.51C182.13 138.99 182.06 138.24 182.08 138.51C182.21 140 183.12 141.32 184.46 141.98C185.11 142.3 184.03 141.76 184.46 141.98C186.5 142.98 188.9 142.94 190.9 141.85C191.01 141.79 191.28 141.65 191.71 141.41" id="g3EAO1DEJ"></path><path d="M226.21 112.03L227.33 112.14L228.89 112.1L230.89 111.92L233.32 111.59L226.94 115.15L225.94 113.64L225.55 112.77L225.54 112.79L224.04 111.78L223.23 111.01L223.1 110.48L223.67 110.19L224.75 109.86L226.18 109.23L227.96 108.31L230.08 107.08L226.14 112.03L226.21 112.03Z" id="c2H71LBDQ"></path><path d="M204.15 121.93C204.15 129.2 210.05 135.1 217.32 135.1C224.59 135.1 230.49 129.2 230.49 121.93C230.49 114.66 224.59 108.75 217.32 108.75C210.05 108.75 204.15 114.66 204.15 121.93Z" id="b87nRMTbRk"></path><path d="M210.19 122.49C210.19 125.87 213.08 128.61 216.63 128.61C220.18 128.61 223.07 125.87 223.07 122.49C223.07 119.11 220.18 116.37 216.63 116.37C213.08 116.37 210.19 119.11 210.19 122.49Z" id="b1p6XX0GaP"></path><path d="M212.3 122.49C212.3 124.88 214.24 126.83 216.63 126.83C219.02 126.83 220.96 124.88 220.96 122.49C220.96 120.1 219.02 118.16 216.63 118.16C214.24 118.16 212.3 120.1 212.3 122.49Z" id="aI0BHXIQ"></path></defs><g><g><g><use xlink:href="#d3vnDMj6Ya" opacity="1" fill="#711ed6" fill-opacity="1"></use></g><g><use xlink:href="#fbkKEHjeG" opacity="1" fill="#a518a0" fill-opacity="0.92"></use></g><g><use xlink:href="#a3oZ8NOsC" opacity="1" fill="#fee433" fill-opacity="1"></use></g><g><use xlink:href="#c6xCy7E7y" opacity="1" fill="#fee433" fill-opacity="1"></use></g><g><use xlink:href="#c2p70Nk6Yb" opacity="1" fill="#dfca3c" fill-opacity="0.94"></use></g><g><use xlink:href="#ac8SZK9qvR" opacity="1" fill="#f8b289" fill-opacity="1"></use></g><g><use xlink:href="#a2HCccCwN3" opacity="1" fill="#dfca3c" fill-opacity="0.94"></use></g><g><use xlink:href="#a1kUVEmGwU" opacity="1" fill="#e9a882" fill-opacity="1"></use></g><g><use xlink:href="#aFJisdiQj" opacity="1" fill="#dfca3c" fill-opacity="0.94"></use></g><g><use xlink:href="#a3huZNECq6" opacity="1" fill="#dfca3c" fill-opacity="0.94"></use></g><g><use xlink:href="#dZEKmtuOJ" opacity="1" fill="#dfca3c" fill-opacity="0.94"></use></g><g><use xlink:href="#h22e8TtSWv" opacity="1" fill="#f8b289" fill-opacity="1"></use></g><g><g><use xlink:href="#l3eC3lFH3Q" opacity="1" fill-opacity="0" stroke="#000000" stroke-width="1" stroke-opacity="1"></use></g></g><g><use xlink:href="#c3dynYJW3r" opacity="1" fill="#e9d517" fill-opacity="1"></use></g><g><use xlink:href="#aD5H7ze7j" opacity="1" fill="#652727" fill-opacity="1"></use></g><g><use xlink:href="#cjXTJVqm" opacity="1" fill="#ffffff" fill-opacity="1"></use></g><g><use xlink:href="#d7kLS0Z1qC" opacity="1" fill="#da1355" fill-opacity="1"></use></g><g><use xlink:href="#bilmiS4UP" opacity="1" fill="#3e250a" fill-opacity="1"></use></g><g><use xlink:href="#clOOJgW8y" opacity="1" fill="#3e250a" fill-opacity="1"></use></g><g><use xlink:href="#g5xq7SCPpC" opacity="1" fill="#fee433" fill-opacity="1"></use></g><g><use xlink:href="#a5nk7LCGrt" opacity="1" fill="#fee433" fill-opacity="1"></use></g><g><use xlink:href="#a4932hzT56" opacity="1" fill="#e4ce3f" fill-opacity="0.94"></use></g><g><use xlink:href="#c1mKJBAMUt" opacity="1" fill="#0f0808" fill-opacity="1"></use></g><g><use xlink:href="#b4ihrf0tz2" opacity="1" fill="#ffffff" fill-opacity="1"></use></g><g><use xlink:href="#blxIpIE7j" opacity="1" fill="#10ad2c" fill-opacity="1"></use></g><g><use xlink:href="#fChrlXubW" opacity="1" fill="#1d0d0d" fill-opacity="1"></use><g><use xlink:href="#fChrlXubW" opacity="1" fill-opacity="0" stroke="#b48a00" stroke-width="0.5" stroke-opacity="1"></use></g></g><g><g><use xlink:href="#g3EAO1DEJ" opacity="1" fill-opacity="0" stroke="#b48162" stroke-width="1" stroke-opacity="1"></use></g></g><g><use xlink:href="#c2H71LBDQ" opacity="1" fill="#0f0808" fill-opacity="1"></use></g><g><use xlink:href="#b87nRMTbRk" opacity="1" fill="#ffffff" fill-opacity="1"></use></g><g><use xlink:href="#b1p6XX0GaP" opacity="1" fill="#10ad2c" fill-opacity="1"></use></g><g><use xlink:href="#aI0BHXIQ" opacity="1" fill="#1d0d0d" fill-opacity="1"></use><g><use xlink:href="#aI0BHXIQ" opacity="1" fill-opacity="0" stroke="#b48a00" stroke-width="0.5" stroke-opacity="1"></use></g></g></g></g></svg>